<?xml version="1.0" encoding="UTF-8"?>
<svg width="43px" height="30px" viewBox="0 0 43 30" version="1.1" xmlns="http://www.w3.org/2000/svg" xmlns:xlink="http://www.w3.org/1999/xlink">
    <title>21845003-9C61-45D9-B681-A0E408C65DD3</title>
    <g id="Promotional" stroke="none" stroke-width="1" fill="none" fill-rule="evenodd">
        <g id="2023-V4-Home-SignedOut-Dark" transform="translate(-802.000000, -3249.000000)">
            <g id="V4-footer" transform="translate(-0.061538, 2982.000000)">
                <g id="ApplePay" transform="translate(803.061538, 268.000000)">
                    <rect id="Rectangle" stroke="#F3F3F3" stroke-width="0.74772435" fill="#FFFFFF" fill-rule="nonzero" stroke-linejoin="round" x="0" y="0" width="41" height="28" rx="3.5"></rect>
                    <path d="M12.2777718,10.3537036 C11.9741129,10.7164644 11.4882545,11.0025793 11.002396,10.9617057 C10.9416556,10.4712232 11.1795339,9.95009086 11.4578843,9.62820358 C11.7615431,9.25524058 12.2929569,8.98955172 12.7231583,8.96912576 C12.7737536,9.48003427 12.5763905,9.98074061 12.2777718,10.3537036 Z M12.7181398,11.0587561 C12.2901016,11.0338991 11.8995502,11.1887257 11.5840807,11.3137672 C11.3810719,11.394239 11.209147,11.4623904 11.0783648,11.4623904 C10.9315754,11.4623904 10.7525772,11.3906078 10.5515801,11.3099846 L10.5515801,11.3099846 C10.2882202,11.2043748 9.98713545,11.0836347 9.67138477,11.0894274 C8.94764795,11.0996296 8.27452815,11.5134878 7.90506719,12.1725656 C7.14589846,13.4907429 7.70768245,15.4424493 8.44154267,16.5153636 C8.80088023,17.0467197 9.23105998,17.6291732 9.79790568,17.6087256 C10.0472918,17.5992367 10.2266578,17.5223962 10.4123184,17.4428754 C10.6260563,17.3513152 10.848079,17.2561885 11.1947623,17.2561885 C11.5294186,17.2561885 11.7417505,17.3488295 11.9455597,17.4377527 C12.1393537,17.5223097 12.3254686,17.6034948 12.6017423,17.5985234 C13.1888348,17.5882996 13.5582741,17.0671673 13.9176117,16.5358112 C14.3053943,15.9655269 14.4758049,15.4089464 14.5016758,15.3244758 L14.5033847,15.3188992 L14.5047042,15.3147059 C14.5040769,15.3140791 14.4992964,15.3118744 14.4908386,15.3079621 C14.3612028,15.2480676 13.3704071,14.7901585 13.360911,13.5622662 C13.3513717,12.5316303 14.1467943,12.0094389 14.2719957,11.9272379 C14.2796099,11.9222448 14.2847581,11.9188729 14.2870727,11.9171005 C13.7809674,11.1609507 12.9914501,11.0792036 12.7181398,11.0587561 Z M16.7821455,17.5423034 L16.7821455,9.57710624 L19.7428733,9.57710624 C21.2713341,9.57710624 22.3392666,10.6397968 22.3392666,12.1929916 C22.3392666,13.7461863 21.2510657,14.8191223 19.7023796,14.8191223 L18.0069259,14.8191223 L18.0069259,17.5423034 L16.7821455,17.5423034 Z M18.0069908,10.6193709 L19.4190325,10.6193709 C20.4818384,10.6193709 21.0891778,11.1916005 21.0891778,12.1981143 C21.0891778,13.204628 20.4818384,13.7819588 19.4139708,13.7819588 L18.0069908,13.7819588 L18.0069908,10.6193709 Z M26.3830039,16.5869302 C26.0591848,17.2102355 25.3455714,17.6036461 24.5761494,17.6036461 C23.4374829,17.6036461 22.6429688,16.9190196 22.6429688,15.8869572 C22.6429688,14.8651185 23.4121744,14.277564 24.834426,14.1907158 L26.3628869,14.098745 L26.3628869,13.6593597 C26.3628869,13.0104841 25.9428089,12.6579687 25.1937203,12.6579687 C24.5761494,12.6579687 24.1257878,12.9798343 24.0347204,13.4703169 L22.9313127,13.4703169 C22.9667879,12.4382761 23.9285112,11.6872057 25.2291955,11.6872057 C26.6311138,11.6872057 27.5420038,12.4280523 27.5420038,13.5776126 L27.5420038,17.5423466 L26.4083124,17.5423466 L26.4083124,16.5869302 L26.3830039,16.5869302 Z M24.90516,16.6584535 C24.2523303,16.6584535 23.8372275,16.3416889 23.8372275,15.8563074 C23.8372275,15.3556011 24.2371885,15.0643852 25.0014189,15.0184105 L26.3628869,14.9315407 L26.3628869,15.3811498 C26.3628869,16.1270974 25.7351493,16.6584535 24.90516,16.6584535 Z M31.3023723,17.8540101 C30.8115602,19.2488117 30.2497979,19.7086445 29.0553228,19.7086445 C28.9642554,19.7086445 28.6605533,19.6984207 28.589603,19.6779732 L28.589603,18.7225567 C28.6655285,18.7327805 28.8528547,18.7430043 28.9488973,18.7430043 C29.4905426,18.7430043 29.7942447,18.5130879 29.9813546,17.9153096 L30.0927553,17.5627726 L28.017674,11.7638734 L29.2982412,11.7638734 L30.7406099,16.4694106 L30.7659184,16.4694106 L32.2082871,11.7638734 L33.4533792,11.7638734 L31.3023723,17.8540101 Z" id="Shape" fill="#000000"></path>
                </g>
            </g>
        </g>
    </g>
</svg>