<?xml version="1.0" encoding="UTF-8"?>
<svg width="43px" height="30px" viewBox="0 0 43 30" version="1.1" xmlns="http://www.w3.org/2000/svg" xmlns:xlink="http://www.w3.org/1999/xlink">
    <title>782E2812-0CF3-4852-AF19-4F8EA20238B9</title>
    <g id="Promotional" stroke="none" stroke-width="1" fill="none" fill-rule="evenodd">
        <g id="2023-V4-Home-SignedOut-Dark" transform="translate(-753.000000, -3249.000000)">
            <g id="V4-footer" transform="translate(-0.061538, 2982.000000)">
                <g id="Google-Pay" transform="translate(754.061538, 268.000000)">
                    <rect id="Rectangle" stroke="#F3F3F3" stroke-width="0.74772435" fill="#FFFFFF" fill-rule="nonzero" stroke-linejoin="round" x="0" y="0" width="41" height="28" rx="3.5"></rect>
                    <path d="M19.7207445,16.9596986 L19.7207445,13.71759 L19.7207445,13.7169631 L21.4772632,13.7169631 C22.2014759,13.7173738 22.810178,13.4901593 23.3031531,13.0353195 C23.801536,12.6036291 24.0801459,11.9829608 24.0658693,11.3360088 C24.0758197,10.692645 23.7976424,10.0765805 23.3031531,9.64629515 C22.8145042,9.18894806 22.1571319,8.93940544 21.4772632,8.95315244 L18.6575709,8.95315244 L18.6575709,16.9596986 L19.7207445,16.9596986 Z M19.7207662,12.7337717 L19.7207662,9.93885117 L19.7207662,9.93822435 L21.5036532,9.93822435 C21.9012348,9.92741696 22.2841071,10.0821139 22.555795,10.3630412 C22.8287808,10.6199545 22.9830113,10.9728589 22.9830113,11.3414125 C22.9830113,11.7099877 22.8287808,12.0628706 22.555795,12.3198055 C22.2808624,12.5948103 21.8990717,12.7450978 21.5036532,12.7337717 L19.7207662,12.7337717 Z" id="Shape" fill="#5F6368"></path>
                    <path d="M28.3767519,11.9122372 C27.922064,11.5059442 27.3016811,11.3027869 26.5158195,11.3027869 C25.5065075,11.3027869 24.7442239,11.6605331 24.2289686,12.3760471 L25.1653834,12.946526 C25.5114827,12.4618578 25.9815287,12.2195345 26.5753053,12.2195345 C26.9540677,12.2152332 27.3202839,12.3491367 27.6014896,12.5945293 C27.88183,12.8187394 28.0431988,13.1530119 28.040603,13.5048573 L28.040603,13.7399612 C27.6322059,13.5163564 27.1121918,13.4045647 26.4809932,13.4045647 C25.7412061,13.4054293 25.1500253,13.5732248 24.7072345,13.9079729 C24.2642275,14.242721 24.0429403,14.6935188 24.0429403,15.260388 C24.0332062,15.7765489 24.2646601,16.2694091 24.6728409,16.6019524 C25.0929189,16.9596986 25.6146635,17.1385609 26.2385074,17.1385609 C26.9694258,17.1385609 27.5549825,16.8255357 27.9951775,16.1994853 L28.041252,16.1994853 L28.041252,16.9596986 L29.0583518,16.9596986 L29.0583518,13.5834486 C29.0587838,12.8756079 28.8316562,12.3185518 28.3767519,11.9122372 Z M25.4928799,15.9535523 C25.2702948,15.7982501 25.1389934,15.5483617 25.1402817,15.2827593 C25.1402817,14.9844321 25.285004,14.735927 25.57616,14.5314944 C25.8645039,14.3300447 26.2246635,14.2293198 26.6566386,14.2293198 C27.2495499,14.2293198 27.7118087,14.3570848 28.0431988,14.6126363 C28.0431988,15.044478 27.8671208,15.420748 27.5149648,15.7414465 C27.1978513,16.0483763 26.767823,16.2211217 26.3191918,16.2218566 C26.0200323,16.2272819 25.728011,16.1324794 25.4928799,15.9535523 Z" id="Shape" fill="#5F6368"></path>
                    <polygon id="Path" fill="#5F6368" points="34.8959641 11.4816708 31.345851 19.3745017 30.2482837 19.3745017 31.565624 16.6128247 29.2314008 11.4816708 30.3869397 11.4816708 32.0741736 15.4169222 32.097319 15.4169222 33.7382621 11.4816708"></polygon>
                    <path d="M15.4244027,13.0186977 C15.4248091,12.7052618 15.3974024,12.3923663 15.342524,12.0834479 L10.858635,12.0834479 L10.858635,13.8549519 L13.4267997,13.8549519 C13.3206121,14.4266628 12.9775628,14.9316056 12.4771898,15.2527147 L12.4771898,16.4026209 L14.0099121,16.4026209 C14.9073474,15.6021609 15.4244027,14.4183843 15.4244027,13.0186977 Z" id="Path" fill="#4285F4"></path>
                    <path d="M10.8586134,17.5135773 C12.1417115,17.5135773 13.2220603,17.1059874 14.0098688,16.4032694 L12.4771682,15.2533632 C12.0505792,15.5331881 11.5011467,15.6928781 10.8586134,15.6928781 C9.61845321,15.6928781 8.56583557,14.8841179 8.18943099,13.7942576 L6.61050453,13.7942576 L6.61050453,14.9793094 C7.41756475,16.5329364 9.06125503,17.5134909 10.8586134,17.5135773 Z" id="Path" fill="#34A853"></path>
                    <path d="M8.18947426,13.7942576 C7.99046718,13.2231735 7.99046718,12.6047315 8.18947426,12.0336258 L8.18947426,10.8485956 L6.6105478,10.8485956 C5.93550282,12.1480544 5.93550282,13.6798289 6.6105478,14.9793094 L8.18947426,13.7942576 Z" id="Path" fill="#FBBC04"></path>
                    <path d="M10.8586134,10.1350269 C11.5366651,10.124306 12.1918526,10.372141 12.6825565,10.8249706 L12.6825565,10.8249706 L14.0395901,9.51215384 C13.1790791,8.73028246 12.0390931,8.30101296 10.8586134,8.31434928 C9.06125503,8.31441412 7.41756475,9.29499016 6.61050453,10.8486172 L8.18943099,12.0336474 C8.56583557,10.9437871 9.61845321,10.1350269 10.8586134,10.1350269 Z" id="Path" fill="#EA4335"></path>
                </g>
            </g>
        </g>
    </g>
</svg>