<?xml version="1.0" encoding="UTF-8"?>
<svg width="43px" height="30px" viewBox="0 0 43 30" version="1.1" xmlns="http://www.w3.org/2000/svg" xmlns:xlink="http://www.w3.org/1999/xlink">
    <title>9BA51D21-CD3D-4BF9-8913-5E4B093397F7</title>
    <g id="Promotional" stroke="none" stroke-width="1" fill="none" fill-rule="evenodd">
        <g id="2023-V4-Home-SignedOut-Dark" transform="translate(-655.000000, -3249.000000)" fill-rule="nonzero">
            <g id="V4-footer" transform="translate(-0.061538, 2982.000000)">
                <g id="Mastercard" transform="translate(656.061538, 268.000000)">
                    <rect id="Rectangle" stroke="#F3F3F3" stroke-width="0.74772435" fill="#FFFFFF" stroke-linejoin="round" x="0" y="0" width="41" height="28" rx="3.5"></rect>
                    <polygon id="Path" fill="#FF5F00" points="24.3221991 20.4513283 16.8715473 20.4513283 16.8715473 7.18119453 24.3221991 7.18119453"></polygon>
                    <path d="M17.3488614,13.8151591 C17.3488614,11.1232546 18.6206464,8.72539752 20.6011129,7.18011379 C19.1528389,6.05011479 17.3250455,5.37566886 15.3385871,5.37566886 C10.6358769,5.37566886 6.82380984,9.15410503 6.82380984,13.8151591 C6.82380984,18.4762347 10.6358769,22.2546493 15.3385871,22.2546493 C17.3250455,22.2546493 19.1528389,21.5802682 20.6011129,20.450226 C18.6206464,18.9049422 17.3488614,16.5070636 17.3488614,13.8151591" id="Path" fill="#EB001B"></path>
                    <path d="M34.3709748,13.8151591 C34.3709748,18.4762347 30.5589078,22.2546493 25.8560678,22.2546493 C23.8696743,22.2546493 22.0418376,21.5802682 20.5930661,20.450226 C22.5741815,18.9049422 23.84588,16.5070636 23.84588,13.8151591 C23.84588,11.1232546 22.5741815,8.72539752 20.5930661,7.18011379 C22.0418376,6.05011479 23.8696743,5.37566886 25.8560678,5.37566886 C30.5589078,5.37566886 34.3709748,9.15410503 34.3709748,13.8151591" id="Path" fill="#F79E1B"></path>
                </g>
            </g>
        </g>
    </g>
</svg>