<?xml version="1.0" encoding="UTF-8"?>
<svg width="43px" height="30px" viewBox="0 0 43 30" version="1.1" xmlns="http://www.w3.org/2000/svg" xmlns:xlink="http://www.w3.org/1999/xlink">
    <title>0C8FAFBA-A812-44E0-B260-6F31A5AE0BA0</title>
    <g id="Promotional" stroke="none" stroke-width="1" fill="none" fill-rule="evenodd">
        <g id="2023-V4-Home-SignedOut-Dark" transform="translate(-606.000000, -3249.000000)">
            <g id="V4-footer" transform="translate(-0.061538, 2982.000000)">
                <g id="Visa" transform="translate(607.061538, 268.000000)">
                    <rect id="Rectangle" stroke="#F3F3F3" stroke-width="0.74772435" fill="#FFFFFF" fill-rule="nonzero" stroke-linejoin="round" x="0" y="0" width="41" height="28" rx="3.5"></rect>
                    <polygon id="Path" fill="#15195A" fill-rule="nonzero" points="18.1618702 19.3421876 15.3823903 19.3421876 17.1208685 9.2799895 19.9002186 9.2799895"></polygon>
                    <path d="M28.2376633,9.52598729 C27.6895286,9.3223977 26.8199542,9.097604 25.7446671,9.097604 C22.9998836,9.097604 21.0669841,10.4677 21.0551302,12.4265392 C21.0323309,13.8717466 22.4389865,14.6744546 23.4911283,15.1563344 C24.5664154,15.6487623 24.9319827,15.9701525 24.9319827,16.4090622 C24.9209508,17.0831622 24.0630573,17.3938747 23.2629191,17.3938747 C22.153022,17.3938747 21.5585965,17.2336876 20.6549313,16.8586495 L20.2889314,16.6978788 L19.8999807,18.9566232 C20.5518803,19.2346324 21.7528447,19.4813219 22.9998836,19.4921509 C25.9162025,19.4921509 27.8149896,18.1432374 27.837486,16.0557902 C27.8485179,14.9103583 27.1057024,14.0326686 25.5043444,13.3154686 C24.5322381,12.8550522 23.9369474,12.5446208 23.9369474,12.0735483 C23.9481956,11.6452947 24.4405218,11.206666 25.5378728,11.206666 C26.4414081,11.1851809 27.1052698,11.3884895 27.6081953,11.5919494 L27.8597662,11.6987913 L28.2376633,9.52598729 L28.2376633,9.52598729 L28.2376633,9.52598729 Z" id="Path" fill="#15195A" fill-rule="nonzero"></path>
                    <path d="M33.2128402,9.2799895 L35.3627655,9.2799895 L37.6052724,19.3420363 L35.0315918,19.3420363 C35.0315918,19.3420363 34.7798046,18.1859266 34.6999854,17.8326547 L31.1312694,17.8326547 C31.0280886,18.1001376 30.5480922,19.3420363 30.5480922,19.3420363 L27.631557,19.3420363 L31.7600885,10.1148603 C32.0462694,9.46183463 32.5498438,9.2799895 33.2128402,9.2799895 Z M33.041521,12.9622183 C33.041521,12.9622183 32.1606984,15.1994775 31.9318403,15.7775216 L34.2422692,15.7775216 C34.1278401,15.2744376 33.6015529,12.8658812 33.6015529,12.8658812 L33.4073047,11.9988692 C33.3255387,12.2221283 33.2072161,12.5290798 33.1273969,12.7361061 C33.0733189,12.8764509 33.0369785,12.9708858 33.041521,12.9622183 Z" id="Shape" fill="#15195A"></path>
                    <path d="M10.3387939,16.1414496 L13.0608214,9.2799895 L15.9998963,9.2799895 L11.6310204,19.3315099 L8.69179407,19.3315099 L6.21443719,10.5883536 C5.35968017,10.1205882 4.38417778,9.74438301 3.29348922,9.48331972 L3.33923921,9.2799895 L7.81116613,9.2799895 C8.41731573,9.3011936 8.90916604,9.48316842 9.06921531,10.125819 L10.0411053,14.7491336 C10.0411702,14.7493714 10.0412567,14.7496092 10.0413432,14.7498685 L10.3387939,16.1414496 Z" id="Path" fill="#15195A"></path>
                </g>
            </g>
        </g>
    </g>
</svg>