<svg width="157" height="46" viewBox="0 0 157 46" fill="none" xmlns="http://www.w3.org/2000/svg">
<path d="M155.299 40.2882C155.299 42.6924 153.311 44.6399 150.852 44.6399H5.32053C2.8627 44.6399 0.867676 42.6924 0.867676 40.2882V5.58491C0.867676 3.18182 2.8627 1.22754 5.32053 1.22754H150.851C153.311 1.22754 155.298 3.18182 155.298 5.58491L155.299 40.2882Z" fill="black"/>
<path d="M150.383 1.28011C153.061 1.28011 155.24 3.40474 155.24 6.01576V39.8519C155.24 42.4629 153.061 44.5875 150.383 44.5875H5.78395C3.10598 44.5875 0.926878 42.4629 0.926878 39.8519V6.01576C0.926878 3.40474 3.10598 1.28011 5.78395 1.28011H150.383ZM150.383 0.376404H5.78395C2.60422 0.376404 0 2.91552 0 6.01576V39.8519C0 42.9521 2.60422 45.4912 5.78395 45.4912H150.383C153.562 45.4912 156.167 42.9521 156.167 39.8519V6.01576C156.167 2.91552 153.562 0.376404 150.383 0.376404Z" fill="#A6A6A6"/>
<path d="M34.8516 22.6901C34.818 19.055 37.9044 17.2865 38.0455 17.2042C36.2976 14.7195 33.5884 14.38 32.6363 14.3529C30.3609 14.1194 28.1538 15.6804 26.9947 15.6804C25.8124 15.6804 24.0275 14.3755 22.1038 14.4138C19.6282 14.451 17.3123 15.8485 16.0422 18.0185C13.4209 22.4431 15.3759 28.9453 17.8873 32.5218C19.1435 34.2733 20.6115 36.2291 22.5329 36.1603C24.4127 36.0847 25.1149 34.9918 27.3834 34.9918C29.631 34.9918 30.2904 36.1603 32.25 36.1163C34.2674 36.0847 35.5376 34.3568 36.7499 32.5894C38.2016 30.5818 38.7847 28.6047 38.8078 28.5032C38.7604 28.4874 34.8898 27.0471 34.8516 22.6901Z" fill="white"/>
<path d="M31.1499 12.0002C32.1609 10.7674 32.8527 9.09026 32.6606 7.38831C31.1973 7.45147 29.3672 8.37519 28.3134 9.58089C27.381 10.6433 26.5481 12.3848 26.7633 14.0224C28.4071 14.142 30.0949 13.2138 31.1499 12.0002Z" fill="white"/>
<path d="M62.0561 35.9087H59.429L57.99 31.4999H52.988L51.6172 35.9087H49.0596L54.0153 20.899H57.0761L62.0561 35.9087ZM57.5562 29.6502L56.2548 25.7308C56.1171 25.3305 55.8592 24.3876 55.4786 22.9033H55.4323C55.2808 23.5416 55.0367 24.4845 54.7012 25.7308L53.423 29.6502H57.5562V29.6502Z" fill="white"/>
<path d="M74.8007 30.3641C74.8007 32.2048 74.2906 33.6598 73.2703 34.7279C72.3564 35.6787 71.2216 36.1535 69.867 36.1535C68.4048 36.1535 67.3545 35.6415 66.7148 34.6173H66.6685V40.3187H64.2022V28.6487C64.2022 27.4915 64.171 26.3038 64.1108 25.0857H66.2798L66.4175 26.8012H66.4638C67.2862 25.5087 68.5344 24.8635 70.2094 24.8635C71.5189 24.8635 72.6121 25.3677 73.4866 26.3771C74.3635 27.3877 74.8007 28.7163 74.8007 30.3641ZM72.2882 30.4521C72.2882 29.3987 72.0453 28.5302 71.5571 27.8467C71.0238 27.1339 70.3078 26.7775 69.4101 26.7775C68.8016 26.7775 68.2487 26.976 67.7547 27.3674C67.2596 27.7622 66.9357 28.2776 66.7842 28.916C66.7078 29.2137 66.6697 29.4573 66.6697 29.6491V31.4537C66.6697 32.2409 66.9172 32.9052 67.4123 33.4477C67.9074 33.9903 68.5506 34.2609 69.3418 34.2609C70.2707 34.2609 70.9937 33.9113 71.5108 33.2143C72.0291 32.5161 72.2882 31.5958 72.2882 30.4521Z" fill="white"/>
<path d="M87.5681 30.3641C87.5681 32.2048 87.058 33.6598 86.0365 34.7279C85.1238 35.6787 83.989 36.1535 82.6344 36.1535C81.1722 36.1535 80.1219 35.6415 79.4833 34.6173H79.4371V40.3187H76.9708V28.6487C76.9708 27.4915 76.9395 26.3038 76.8794 25.0857H79.0484L79.186 26.8012H79.2323C80.0536 25.5087 81.3018 24.8635 82.978 24.8635C84.2863 24.8635 85.3795 25.3677 86.2563 26.3771C87.1297 27.3877 87.5681 28.7163 87.5681 30.3641ZM85.0556 30.4521C85.0556 29.3987 84.8115 28.5302 84.3233 27.8467C83.7901 27.1339 83.0763 26.7775 82.1775 26.7775C81.5679 26.7775 81.0161 26.976 80.521 27.3674C80.0259 27.7622 79.7031 28.2776 79.5516 28.916C79.4764 29.2137 79.4371 29.4573 79.4371 29.6491V31.4537C79.4371 32.2409 79.6846 32.9052 80.1774 33.4477C80.6725 33.9891 81.3157 34.2609 82.1092 34.2609C83.0382 34.2609 83.7611 33.9113 84.2782 33.2143C84.7965 32.5161 85.0556 31.5958 85.0556 30.4521Z" fill="white"/>
<path d="M101.843 31.6995C101.843 32.9762 101.388 34.015 100.475 34.8169C99.4724 35.6933 98.0762 36.1309 96.282 36.1309C94.6255 36.1309 93.2975 35.8196 92.2922 35.1959L92.8637 33.1917C93.9464 33.83 95.1345 34.1504 96.4289 34.1504C97.3578 34.1504 98.0808 33.9451 98.6002 33.5368C99.1173 33.1285 99.3753 32.5804 99.3753 31.8969C99.3753 31.2878 99.1624 30.7746 98.7356 30.3585C98.311 29.9423 97.6019 29.5554 96.6117 29.1979C93.9164 28.2178 92.5699 26.782 92.5699 24.8939C92.5699 23.66 93.0418 22.6483 93.9869 21.8611C94.9286 21.0727 96.1848 20.6791 97.7558 20.6791C99.1566 20.6791 100.32 20.9171 101.249 21.3919L100.633 23.3521C99.7651 22.892 98.7841 22.6619 97.6863 22.6619C96.8188 22.6619 96.1409 22.8705 95.655 23.2856C95.2444 23.6567 95.0385 24.1089 95.0385 24.6447C95.0385 25.2379 95.2733 25.7286 95.7453 26.1143C96.1559 26.4707 96.902 26.8564 97.9848 27.2726C99.3093 27.7926 100.282 28.4005 100.908 29.0975C101.532 29.7923 101.843 30.6619 101.843 31.6995Z" fill="white"/>
<path d="M109.997 26.8902H107.279V32.145C107.279 33.4815 107.758 34.1492 108.718 34.1492C109.158 34.1492 109.524 34.112 109.813 34.0376L109.881 35.8636C109.396 36.0407 108.756 36.1298 107.963 36.1298C106.989 36.1298 106.228 35.8399 105.679 35.2613C105.132 34.6816 104.856 33.7094 104.856 32.3435V26.888H103.237V25.0834H104.856V23.1017L107.279 22.3889V25.0834H109.997V26.8902Z" fill="white"/>
<path d="M122.263 30.4081C122.263 32.0717 121.774 33.4376 120.8 34.5057C119.779 35.6053 118.423 36.1535 116.733 36.1535C115.104 36.1535 113.808 35.6268 112.841 34.5733C111.873 33.5199 111.39 32.1901 111.39 30.5874C111.39 28.9103 111.887 27.5365 112.886 26.4685C113.882 25.3992 115.226 24.8646 116.916 24.8646C118.545 24.8646 119.855 25.3913 120.844 26.4459C121.791 27.4689 122.263 28.7896 122.263 30.4081ZM119.704 30.4859C119.704 29.4878 119.485 28.6317 119.042 27.9178C118.525 27.0538 117.786 26.623 116.828 26.623C115.837 26.623 115.084 27.0549 114.566 27.9178C114.123 28.6328 113.905 29.5024 113.905 30.531C113.905 31.5292 114.123 32.3853 114.566 33.0981C115.1 33.962 115.845 34.3929 116.806 34.3929C117.748 34.3929 118.487 33.953 119.02 33.0755C119.475 32.348 119.704 31.483 119.704 30.4859Z" fill="white"/>
<path d="M130.279 27.2005C130.035 27.1565 129.775 27.1339 129.502 27.1339C128.634 27.1339 127.963 27.4531 127.491 28.0926C127.081 28.6566 126.875 29.3694 126.875 30.2299V35.9088H124.41L124.433 28.4941C124.433 27.2467 124.402 26.1109 124.34 25.0868H126.489L126.579 27.1576H126.647C126.907 26.4459 127.318 25.873 127.88 25.4433C128.43 25.0564 129.023 24.8635 129.663 24.8635C129.891 24.8635 130.097 24.8793 130.279 24.9075V27.2005Z" fill="white"/>
<path d="M141.309 29.9851C141.309 30.4159 141.28 30.7791 141.219 31.0757H133.82C133.849 32.145 134.207 32.9627 134.894 33.5266C135.517 34.0308 136.323 34.2834 137.314 34.2834C138.409 34.2834 139.409 34.1131 140.307 33.7714L140.694 35.4406C139.643 35.8872 138.403 36.1094 136.972 36.1094C135.251 36.1094 133.9 35.6154 132.917 34.6285C131.936 33.6417 131.444 32.3164 131.444 30.6539C131.444 29.0219 131.901 27.6628 132.816 26.5789C133.774 25.4217 135.068 24.8431 136.697 24.8431C138.297 24.8431 139.508 25.4217 140.331 26.5789C140.982 27.4981 141.309 28.635 141.309 29.9851ZM138.957 29.3614C138.974 28.6486 138.813 28.0328 138.479 27.5128C138.052 26.844 137.396 26.5101 136.513 26.5101C135.707 26.5101 135.051 26.8361 134.55 27.4903C134.139 28.0102 133.895 28.6339 133.82 29.3603H138.957V29.3614Z" fill="white"/>
<path d="M56.741 11.6651C56.741 12.9926 56.3327 13.9919 55.5171 14.663C54.7617 15.2822 53.6882 15.5924 52.2978 15.5924C51.6083 15.5924 51.0184 15.563 50.5244 15.5044V8.25105C51.1687 8.14954 51.8628 8.09766 52.6124 8.09766C53.9369 8.09766 54.9353 8.3785 55.6085 8.94018C56.3627 9.57517 56.741 10.4831 56.741 11.6651ZM55.4628 11.6978C55.4628 10.8373 55.2291 10.1774 54.7617 9.71728C54.2944 9.25823 53.6119 9.02815 52.7131 9.02815C52.3313 9.02815 52.0063 9.05296 51.7367 9.10484V14.619C51.886 14.6416 52.159 14.6517 52.5557 14.6517C53.4835 14.6517 54.1995 14.4002 54.7039 13.8972C55.2083 13.3941 55.4628 12.661 55.4628 11.6978Z" fill="white"/>
<path d="M63.5186 12.8246C63.5186 13.6423 63.2792 14.3123 62.8003 14.8379C62.2982 15.3781 61.6331 15.6477 60.8025 15.6477C60.002 15.6477 59.3646 15.3894 58.8892 14.8706C58.4149 14.3529 58.1777 13.6998 58.1777 12.9126C58.1777 12.0892 58.4218 11.4136 58.9123 10.8892C59.4028 10.3647 60.0621 10.1019 60.8927 10.1019C61.6932 10.1019 62.3364 10.3602 62.8234 10.8779C63.2861 11.3809 63.5186 12.0306 63.5186 12.8246ZM62.2612 12.863C62.2612 12.3723 62.1525 11.9516 61.9361 11.6009C61.6817 11.1768 61.3196 10.9647 60.8488 10.9647C60.3618 10.9647 59.9916 11.1768 59.7371 11.6009C59.5196 11.9516 59.412 12.3791 59.412 12.8844C59.412 13.375 59.5208 13.7957 59.7371 14.1465C59.9997 14.5705 60.3652 14.7826 60.8372 14.7826C61.2999 14.7826 61.6631 14.5672 61.9246 14.1352C62.149 13.7777 62.2612 13.3536 62.2612 12.863Z" fill="white"/>
<path d="M72.6062 10.2102L70.8999 15.527H69.7894L69.0826 13.2182C68.9033 12.6419 68.7576 12.0689 68.6442 11.5005H68.6222C68.5169 12.0847 68.3712 12.6566 68.1838 13.2182L67.433 15.527H66.3098L64.7053 10.2102H65.9512L66.5677 12.7378C66.717 13.3355 66.8396 13.9051 66.9379 14.4442H66.9599C67.0501 13.9998 67.1994 13.4337 67.4099 12.749L68.1838 10.2113H69.1717L69.9132 12.6949C70.0925 13.3006 70.2382 13.8837 70.3505 14.4454H70.384C70.4661 13.8983 70.5899 13.3152 70.7542 12.6949L71.4159 10.2113H72.6062V10.2102Z" fill="white"/>
<path d="M78.8909 15.527H77.6786V12.4817C77.6786 11.5433 77.3131 11.0741 76.5797 11.0741C76.2199 11.0741 75.9296 11.2027 75.704 11.461C75.4807 11.7193 75.3674 12.0238 75.3674 12.3723V15.5258H74.155V11.7294C74.155 11.2625 74.14 10.7561 74.1111 10.2079H75.1765L75.2332 11.0392H75.2667C75.4078 10.7809 75.6184 10.5677 75.8948 10.3974C76.2234 10.1989 76.5912 10.0985 76.9938 10.0985C77.5028 10.0985 77.9262 10.2587 78.2628 10.5801C78.6815 10.9737 78.8909 11.5614 78.8909 12.3418V15.527V15.527Z" fill="white"/>
<path d="M82.2343 15.527H81.0232V7.77063H82.2343V15.527Z" fill="white"/>
<path d="M89.3719 12.8246C89.3719 13.6423 89.1325 14.3123 88.6535 14.8379C88.1515 15.3781 87.4852 15.6477 86.6558 15.6477C85.8541 15.6477 85.2167 15.3894 84.7424 14.8706C84.2681 14.3529 84.031 13.6998 84.031 12.9126C84.031 12.0892 84.2751 11.4136 84.7656 10.8892C85.256 10.3647 85.9154 10.1019 86.7448 10.1019C87.5465 10.1019 88.1885 10.3602 88.6767 10.8779C89.1394 11.3809 89.3719 12.0306 89.3719 12.8246ZM88.1133 12.863C88.1133 12.3723 88.0046 11.9516 87.7883 11.6009C87.5349 11.1768 87.1717 10.9647 86.702 10.9647C86.2139 10.9647 85.8437 11.1768 85.5904 11.6009C85.3729 11.9516 85.2653 12.3791 85.2653 12.8844C85.2653 13.375 85.374 13.7957 85.5904 14.1465C85.8529 14.5705 86.2185 14.7826 86.6905 14.7826C87.1532 14.7826 87.5153 14.5672 87.7767 14.1352C88.0023 13.7777 88.1133 13.3536 88.1133 12.863Z" fill="white"/>
<path d="M95.2392 15.527H94.1507L94.0605 14.9146H94.0269C93.6544 15.4029 93.1235 15.6477 92.434 15.6477C91.9192 15.6477 91.5028 15.4864 91.1893 15.1661C90.9047 14.8751 90.7625 14.513 90.7625 14.0833C90.7625 13.4337 91.0401 12.9385 91.5988 12.5956C92.1564 12.2528 92.9407 12.0847 93.9506 12.0926V11.9934C93.9506 11.293 93.5734 10.9433 92.8181 10.9433C92.2802 10.9433 91.8059 11.0753 91.3964 11.3369L91.15 10.561C91.6566 10.2553 92.2825 10.1019 93.0205 10.1019C94.4457 10.1019 95.1606 10.835 95.1606 12.3013V14.2593C95.1606 14.7905 95.1872 15.2134 95.2392 15.527ZM93.9806 13.6998V12.8799C92.6434 12.8573 91.9748 13.2149 91.9748 13.9513C91.9748 14.2288 92.0511 14.4363 92.2073 14.5751C92.3634 14.7138 92.5624 14.7826 92.7996 14.7826C93.0656 14.7826 93.3143 14.7003 93.5411 14.5367C93.7689 14.372 93.9089 14.1634 93.961 13.9074C93.9737 13.8498 93.9806 13.7799 93.9806 13.6998Z" fill="white"/>
<path d="M102.127 15.527H101.052L100.995 14.6732H100.961C100.618 15.3228 100.032 15.6477 99.21 15.6477C98.5529 15.6477 98.0058 15.3962 97.572 14.8931C97.1382 14.3901 96.9219 13.7371 96.9219 12.9351C96.9219 12.0746 97.1567 11.3776 97.6287 10.8452C98.0856 10.3489 98.6455 10.1008 99.3118 10.1008C100.044 10.1008 100.557 10.341 100.848 10.8226H100.871V7.77063H102.085V14.0946C102.085 14.6123 102.099 15.0894 102.127 15.527ZM100.871 13.2848V12.3983C100.871 12.2449 100.86 12.1208 100.838 12.0261C100.769 11.7419 100.622 11.5028 100.399 11.3099C100.174 11.117 99.9018 11.02 99.5883 11.02C99.136 11.02 98.782 11.1948 98.5217 11.5456C98.2637 11.8964 98.133 12.3441 98.133 12.8912C98.133 13.4167 98.2568 13.8431 98.5055 14.1713C98.7681 14.5209 99.1221 14.6958 99.5651 14.6958C99.9631 14.6958 100.281 14.5503 100.523 14.2581C100.757 13.9886 100.871 13.6638 100.871 13.2848Z" fill="white"/>
<path d="M112.496 12.8246C112.496 13.6423 112.256 14.3123 111.778 14.8379C111.276 15.3781 110.612 15.6477 109.78 15.6477C108.98 15.6477 108.343 15.3894 107.866 14.8706C107.392 14.3529 107.155 13.6998 107.155 12.9126C107.155 12.0892 107.399 11.4136 107.89 10.8892C108.38 10.3647 109.039 10.1019 109.871 10.1019C110.671 10.1019 111.315 10.3602 111.801 10.8779C112.263 11.3809 112.496 12.0306 112.496 12.8246ZM111.24 12.863C111.24 12.3723 111.131 11.9516 110.915 11.6009C110.659 11.1768 110.298 10.9647 109.826 10.9647C109.34 10.9647 108.97 11.1768 108.714 11.6009C108.497 11.9516 108.389 12.3791 108.389 12.8844C108.389 13.375 108.498 13.7957 108.714 14.1465C108.977 14.5705 109.343 14.7826 109.814 14.7826C110.277 14.7826 110.642 14.5672 110.903 14.1352C111.126 13.7777 111.24 13.3536 111.24 12.863Z" fill="white"/>
<path d="M119.014 15.527H117.803V12.4817C117.803 11.5433 117.438 11.0741 116.703 11.0741C116.343 11.0741 116.053 11.2027 115.828 11.461C115.604 11.7193 115.492 12.0238 115.492 12.3723V15.5258H114.278V11.7294C114.278 11.2625 114.265 10.7561 114.236 10.2079H115.3L115.357 11.0392H115.39C115.532 10.7809 115.743 10.5677 116.018 10.3974C116.348 10.1989 116.715 10.0985 117.118 10.0985C117.626 10.0985 118.05 10.2587 118.386 10.5801C118.806 10.9737 119.014 11.5614 119.014 12.3418V15.527V15.527Z" fill="white"/>
<path d="M127.173 11.0956H125.838V13.6784C125.838 14.3348 126.075 14.6631 126.545 14.6631C126.763 14.6631 126.943 14.645 127.085 14.6078L127.117 15.5045C126.877 15.5924 126.562 15.6364 126.175 15.6364C125.696 15.6364 125.323 15.4943 125.054 15.2101C124.783 14.9259 124.649 14.4476 124.649 13.7766V11.0956H123.852V10.2102H124.649V9.23575L125.837 8.88611V10.2091H127.172V11.0956H127.173Z" fill="white"/>
<path d="M133.591 15.527H132.377V12.5043C132.377 11.5513 132.012 11.0742 131.28 11.0742C130.717 11.0742 130.333 11.3505 130.123 11.9031C130.087 12.0193 130.066 12.1614 130.066 12.3284V15.5259H128.855V7.77063H130.066V10.9749H130.089C130.471 10.3918 131.018 10.1008 131.727 10.1008C132.229 10.1008 132.645 10.261 132.974 10.5824C133.385 10.9828 133.591 11.5783 133.591 12.3656V15.527V15.527Z" fill="white"/>
<path d="M140.211 12.6171C140.211 12.8291 140.195 13.0073 140.166 13.1528H136.53C136.547 13.6784 136.72 14.0788 137.057 14.3563C137.365 14.6044 137.761 14.7285 138.247 14.7285C138.785 14.7285 139.276 14.645 139.717 14.477L139.907 15.298C139.39 15.5169 138.782 15.6263 138.077 15.6263C137.233 15.6263 136.567 15.3838 136.086 14.8988C135.603 14.4138 135.363 13.763 135.363 12.9464C135.363 12.1445 135.587 11.4768 136.037 10.9445C136.506 10.376 137.141 10.0918 137.943 10.0918C138.727 10.0918 139.323 10.376 139.726 10.9445C140.051 11.3956 140.211 11.9539 140.211 12.6171ZM139.055 12.3114C139.064 11.9607 138.984 11.6584 138.82 11.4035C138.609 11.0753 138.289 10.9106 137.855 10.9106C137.459 10.9106 137.137 11.0708 136.89 11.3922C136.689 11.6483 136.57 11.9539 136.53 12.3114H139.055Z" fill="white"/>
</svg>
