<svg width="17" height="13" viewBox="0 0 17 13" fill="none" xmlns="http://www.w3.org/2000/svg">
<path fill-rule="evenodd" clip-rule="evenodd" d="M14.025 4.14881C14.025 3.52413 14.5793 3.01731 15.2625 3.01731C15.9457 3.01731 16.5 3.52413 16.5 4.14881C16.5 4.77348 15.9457 5.2803 15.2625 5.2803C15.1955 5.2803 15.1284 5.27087 15.064 5.26144L13.2 9.80627H3.3L1.43602 5.26144C1.37156 5.27087 1.30453 5.2803 1.2375 5.2803C0.554297 5.2803 0 4.77348 0 4.14881C0 3.52413 0.556875 3.01731 1.24008 3.01731C1.92328 3.01731 2.47758 3.52413 2.47758 4.14881C2.47758 4.31617 2.43375 4.47411 2.36414 4.61555L4.22813 5.6386C4.62258 5.85547 5.1382 5.73289 5.36766 5.36516L7.46883 2.00368C7.19297 1.79624 7.0125 1.48508 7.0125 1.13149C7.0125 0.506814 7.5668 0 8.25 0C8.9332 0 9.4875 0.506814 9.4875 1.13149C9.4875 1.48508 9.30703 1.79624 9.03117 2.00368L11.1323 5.36516C11.3618 5.73289 11.8748 5.85547 12.2719 5.6386L14.1384 4.61555C14.0662 4.47175 14.025 4.31617 14.025 4.14881ZM2.88809 10.5606H13.6131C13.84 10.5606 14.0256 10.7303 14.0256 10.9378V11.6921C14.0256 11.8995 13.84 12.0693 13.6131 12.0693H2.88809C2.66121 12.0693 2.47559 11.8995 2.47559 11.6921V10.9378C2.47559 10.7303 2.66121 10.5606 2.88809 10.5606Z" fill="#FFBD0A"/>
</svg>
