<svg width="13" height="12" viewBox="0 0 13 12" fill="none" xmlns="http://www.w3.org/2000/svg">
<ellipse cx="6.5371" cy="6" rx="6.02684" ry="6" fill="url(#paint0_linear_0_46548)"/>
<path d="M6.91318 2.17862C7.2165 2.19943 7.4904 2.1094 7.69402 1.93987C7.78767 1.8619 7.86671 1.71739 7.93115 1.50632L8.61233 1.50002C8.71335 1.49911 8.796 1.57725 8.79694 1.67455C8.79708 1.68815 8.79557 1.70172 8.79246 1.71499L7.60927 6.76481C7.59815 6.81227 7.54919 6.84207 7.49992 6.83135C7.48733 6.82862 7.47548 6.82334 7.46516 6.81588C7.34167 6.72663 7.21657 6.65065 7.08984 6.58795C7.06822 6.19823 6.7994 5.89667 6.39483 5.89667C6.06754 5.89667 5.7991 6.12348 5.69504 6.41846C5.55864 6.44857 5.42059 6.49167 5.28095 6.54774C5.23433 6.56647 5.18077 6.54524 5.16134 6.50033C5.15669 6.48958 5.15429 6.47805 5.1543 6.4664L5.15592 1.70559C5.15596 1.60895 5.2368 1.53037 5.33713 1.52946L6.13218 1.52232L6.13976 1.55169C6.23546 1.90296 6.48532 2.14926 6.91318 2.17862Z" fill="white"/>
<ellipse cx="6.05166" cy="8.75607" rx="1.59482" ry="1.56268" transform="rotate(7 6.05166 8.75607)" fill="white"/>
<defs>
<linearGradient id="paint0_linear_0_46548" x1="0.510254" y1="0" x2="0.510254" y2="12" gradientUnits="userSpaceOnUse">
<stop stop-color="#FFD70D"/>
<stop offset="1" stop-color="#FFAE05"/>
</linearGradient>
</defs>
</svg>
