<svg width="25" height="24" viewBox="0 0 25 24" fill="none" xmlns="http://www.w3.org/2000/svg">
<path d="M24.0682 12C24.0682 5.37258 18.6803 0 12.0341 0C5.38784 0 0 5.37258 0 12C0 17.9895 4.40067 22.954 10.1538 23.8542V15.4688H7.09823V12H10.1538V9.35625C10.1538 6.34875 11.9504 4.6875 14.6992 4.6875C16.0154 4.6875 17.393 4.92188 17.393 4.92188V7.875H15.8756C14.3807 7.875 13.9144 8.80008 13.9144 9.75V12H17.252L16.7185 15.4688H13.9144V23.8542C19.6675 22.954 24.0682 17.9895 24.0682 12Z" fill="#1877F2"/>
<path d="M16.7184 15.4688L17.2519 12H13.9143V9.75C13.9143 8.80102 14.3807 7.875 15.8755 7.875H17.3929V4.92188C17.3929 4.92188 16.0158 4.6875 14.6991 4.6875C11.9503 4.6875 10.1537 6.34875 10.1537 9.35625V12H7.09814V15.4688H10.1537V23.8542C11.3996 24.0486 12.6684 24.0486 13.9143 23.8542V15.4688H16.7184Z" fill="white"/>
</svg>
