<svg width="156" height="46" viewBox="0 0 156 46" fill="none" xmlns="http://www.w3.org/2000/svg">
<path d="M150.224 45.6235H5.82434C2.64898 45.6235 0.0483398 43.0844 0.0483398 39.9842V6.14808C0.0483398 3.04785 2.64898 0.508728 5.82434 0.508728H150.224C153.4 0.508728 156 3.04785 156 6.14808V39.9842C156 43.0844 153.4 45.6235 150.224 45.6235Z" fill="black"/>
<path d="M150.224 1.41243C152.899 1.41243 155.075 3.53706 155.075 6.14808V39.9842C155.075 42.5952 152.899 44.7198 150.224 44.7198H5.82434C3.15005 44.7198 0.973943 42.5952 0.973943 39.9842V6.14808C0.973943 3.53706 3.15005 1.41243 5.82434 1.41243H150.224ZM150.224 0.508728H5.82434C2.64898 0.508728 0.0483398 3.04785 0.0483398 6.14808V39.9842C0.0483398 43.0844 2.64898 45.6235 5.82434 45.6235H150.224C153.4 45.6235 156 43.0844 156 39.9842V6.14808C156 3.04785 153.4 0.508728 150.224 0.508728Z" fill="#A6A6A6"/>
<path d="M54.8251 12.0624C54.8251 13.0041 54.5363 13.7584 53.9674 14.3209C53.3133 14.9878 52.4613 15.3233 51.4173 15.3233C50.4195 15.3233 49.5675 14.9822 48.8686 14.3097C48.1683 13.6273 47.8188 12.7899 47.8188 11.7875C47.8188 10.7851 48.1683 9.94762 48.8686 9.2709C49.5675 8.59277 50.4195 8.25159 51.4173 8.25159C51.914 8.25159 52.3877 8.35169 52.8396 8.53778C53.2902 8.72529 53.6569 8.97906 53.9226 9.29205L53.319 9.887C52.8555 9.35267 52.2245 9.08903 51.4173 9.08903C50.6895 9.08903 50.0585 9.33716 49.5228 9.83765C48.9928 10.3396 48.7271 10.9895 48.7271 11.7875C48.7271 12.5854 48.9928 13.241 49.5228 13.7429C50.0585 14.2378 50.6895 14.4915 51.4173 14.4915C52.1898 14.4915 52.8396 14.2378 53.3523 13.7373C53.6902 13.406 53.8822 12.9492 53.9327 12.3655H51.4173V11.5506H54.7731C54.8136 11.7268 54.8251 11.8974 54.8251 12.0624V12.0624Z" fill="white" stroke="white" stroke-width="0.16" stroke-miterlimit="10"/>
<path d="M60.1489 9.23701H56.9966V11.38H59.8384V12.1948H56.9966V14.3378H60.1489V15.1682H56.1042V8.40662H60.1489V9.23701Z" fill="white" stroke="white" stroke-width="0.16" stroke-miterlimit="10"/>
<path d="M63.9065 15.1682H63.0141V9.23701H61.0806V8.40662H65.8414V9.23701H63.9065V15.1682V15.1682Z" fill="white" stroke="white" stroke-width="0.16" stroke-miterlimit="10"/>
<path d="M69.2866 15.1682V8.40662H70.1776V15.1682H69.2866Z" fill="white" stroke="white" stroke-width="0.16" stroke-miterlimit="10"/>
<path d="M74.1269 15.1682H73.2418V9.23701H71.301V8.40662H76.0677V9.23701H74.1269V15.1682Z" fill="white" stroke="white" stroke-width="0.16" stroke-miterlimit="10"/>
<path d="M85.0811 14.2984C84.3981 14.9822 83.5519 15.3233 82.5425 15.3233C81.5274 15.3233 80.6812 14.9822 79.9982 14.2984C79.3166 13.616 78.9773 12.7786 78.9773 11.7875C78.9773 10.7963 79.3166 9.9589 79.9982 9.27654C80.6812 8.59277 81.5274 8.25159 82.5425 8.25159C83.5461 8.25159 84.3923 8.59277 85.0753 9.28218C85.7627 9.97018 86.102 10.802 86.102 11.7875C86.102 12.7786 85.7627 13.616 85.0811 14.2984ZM80.6581 13.7316C81.1722 14.2378 81.7974 14.4915 82.5425 14.4915C83.2819 14.4915 83.9129 14.2378 84.4212 13.7316C84.9338 13.2255 85.1937 12.5756 85.1937 11.7875C85.1937 10.9994 84.9338 10.3494 84.4212 9.84329C83.9129 9.33716 83.2819 9.08339 82.5425 9.08339C81.7974 9.08339 81.1722 9.33716 80.6581 9.84329C80.1455 10.3494 79.8856 10.9994 79.8856 11.7875C79.8856 12.5756 80.1455 13.2255 80.6581 13.7316V13.7316Z" fill="white" stroke="white" stroke-width="0.16" stroke-miterlimit="10"/>
<path d="M87.354 15.1682V8.40662H88.437L91.8044 13.6653H91.8434L91.8044 12.3654V8.40662H92.6954V15.1682H91.7654L88.2392 9.65009H88.2002L88.2392 10.9556V15.1682H87.354V15.1682Z" fill="white" stroke="white" stroke-width="0.16" stroke-miterlimit="10"/>
<path d="M78.7576 25.0427C76.0444 25.0427 73.8278 27.0588 73.8278 29.8404C73.8278 32.5995 76.0444 34.6367 78.7576 34.6367C81.4767 34.6367 83.6932 32.5995 83.6932 29.8404C83.6932 27.0588 81.4767 25.0427 78.7576 25.0427ZM78.7576 32.7475C77.2689 32.7475 75.9881 31.5477 75.9881 29.8404C75.9881 28.1105 77.2689 26.9319 78.7576 26.9319C80.2464 26.9319 81.533 28.1105 81.533 29.8404C81.533 31.5477 80.2464 32.7475 78.7576 32.7475V32.7475ZM68.0013 25.0427C65.2822 25.0427 63.0715 27.0588 63.0715 29.8404C63.0715 32.5995 65.2822 34.6367 68.0013 34.6367C70.7189 34.6367 72.9311 32.5995 72.9311 29.8404C72.9311 27.0588 70.7189 25.0427 68.0013 25.0427ZM68.0013 32.7475C66.5111 32.7475 65.2259 31.5477 65.2259 29.8404C65.2259 28.1105 66.5111 26.9319 68.0013 26.9319C69.4901 26.9319 70.7709 28.1105 70.7709 29.8404C70.7709 31.5477 69.4901 32.7475 68.0013 32.7475ZM55.2017 26.5132V28.5518H60.1878C60.042 29.691 59.6521 30.5284 59.0543 31.1121C58.3265 31.817 57.193 32.5995 55.2017 32.5995C52.1332 32.5995 49.7304 30.1816 49.7304 27.1857C49.7304 24.1898 52.1332 21.7719 55.2017 21.7719C56.8608 21.7719 58.068 22.4049 58.959 23.2254L60.4304 21.7888C59.1842 20.6271 57.5265 19.7347 55.2017 19.7347C50.9939 19.7347 47.4575 23.0774 47.4575 27.1857C47.4575 31.2939 50.9939 34.6367 55.2017 34.6367C57.476 34.6367 59.1842 33.9092 60.5272 32.5445C61.9033 31.2009 62.3322 29.3117 62.3322 27.7863C62.3322 27.3126 62.2917 26.8769 62.2195 26.5132H55.2017ZM107.541 28.0936C107.135 27.0207 105.883 25.0427 103.333 25.0427C100.806 25.0427 98.7022 26.9869 98.7022 29.8404C98.7022 32.5276 100.784 34.6367 103.576 34.6367C105.833 34.6367 107.135 33.2931 107.671 32.5106L105.996 31.4208C105.437 32.2188 104.676 32.7475 103.576 32.7475C102.483 32.7475 101.698 32.2583 101.196 31.2939L107.768 28.6392L107.541 28.0936V28.0936ZM100.841 29.691C100.784 27.8413 102.312 26.8938 103.407 26.8938C104.264 26.8938 104.992 27.3126 105.235 27.9117L100.841 29.691V29.691ZM95.4994 34.3448H97.6596V20.2465H95.4994V34.3448ZM91.9616 26.1114H91.8894C91.4042 25.5503 90.4786 25.0427 89.3061 25.0427C86.8455 25.0427 84.5957 27.1518 84.5957 29.8559C84.5957 32.5445 86.8455 34.6367 89.3061 34.6367C90.4786 34.6367 91.4042 34.1249 91.8894 33.5469H91.9616V34.2349C91.9616 36.0691 90.958 37.0545 89.3393 37.0545C88.0195 37.0545 87.2007 36.1241 86.8628 35.3416L84.9842 36.1071C85.5257 37.3788 86.9596 38.9437 89.3393 38.9437C91.8721 38.9437 94.0092 37.4888 94.0092 33.9487V25.3346H91.9616V26.1114V26.1114ZM89.4909 32.7475C88.0021 32.7475 86.756 31.5308 86.756 29.8559C86.756 28.1655 88.0021 26.9319 89.4909 26.9319C90.958 26.9319 92.1146 28.1655 92.1146 29.8559C92.1146 31.5308 90.958 32.7475 89.4909 32.7475V32.7475ZM117.655 20.2465H112.488V34.3448H114.642V29.003H117.655C120.047 29.003 122.394 27.3126 122.394 24.624C122.394 21.9369 120.042 20.2465 117.655 20.2465V20.2465ZM117.711 27.0419H114.642V22.2075H117.711C119.32 22.2075 120.238 23.5116 120.238 24.624C120.238 25.7152 119.32 27.0419 117.711 27.0419ZM131.029 25.0159C129.472 25.0159 127.854 25.687 127.188 27.1744L129.1 27.9569C129.511 27.1744 130.268 26.9206 131.068 26.9206C132.186 26.9206 133.319 27.5762 133.336 28.7337V28.8817C132.947 28.6618 132.112 28.3361 131.085 28.3361C129.026 28.3361 126.928 29.4428 126.928 31.5082C126.928 33.3974 128.615 34.6141 130.511 34.6141C131.96 34.6141 132.76 33.9755 133.263 33.2325H133.336V34.3223H135.417V28.9141C135.417 26.4145 133.505 25.0159 131.029 25.0159ZM130.769 32.7419C130.064 32.7419 129.082 32.4007 129.082 31.5477C129.082 30.4565 130.307 30.0378 131.367 30.0378C132.316 30.0378 132.76 30.2422 133.336 30.5115C133.168 31.817 132.017 32.7419 130.769 32.7419V32.7419ZM142.998 25.3247L140.522 31.4363H140.448L137.888 25.3247H135.565L139.411 33.8655L137.217 38.6181H139.468L145.395 25.3247H142.998V25.3247ZM123.578 34.3448H125.738V20.2465H123.578V34.3448Z" fill="white"/>
<path d="M12.1029 9.0114C11.7635 9.35822 11.5671 9.89818 11.5671 10.5975V35.5403C11.5671 36.2396 11.7635 36.7796 12.1029 37.1264L12.1866 37.2025L26.5024 23.231V22.9011L12.1866 8.92963L12.1029 9.0114Z" fill="url(#paint0_linear_1408_697)"/>
<path d="M31.2688 27.8906L26.5022 23.2311V22.9012L31.2746 18.2417L31.3815 18.3023L37.0333 21.442C38.6462 22.333 38.6462 23.7993 37.0333 24.6959L31.3815 27.83L31.2688 27.8906V27.8906Z" fill="url(#paint1_linear_1408_697)"/>
<path d="M31.3816 27.83L26.5023 23.0662L12.1028 37.1265C12.6385 37.6763 13.5121 37.7426 14.5056 37.1927L31.3816 27.83" fill="url(#paint2_linear_1408_697)"/>
<path d="M31.3816 18.3023L14.5056 8.93959C13.5121 8.39539 12.6385 8.46166 12.1028 9.01149L26.5023 23.0662L31.3816 18.3023Z" fill="url(#paint3_linear_1408_697)"/>
<defs>
<linearGradient id="paint0_linear_1408_697" x1="25.2314" y1="35.8001" x2="6.30841" y2="16.4186" gradientUnits="userSpaceOnUse">
<stop stop-color="#00A0FF"/>
<stop offset="0.0066" stop-color="#00A1FF"/>
<stop offset="0.2601" stop-color="#00BEFF"/>
<stop offset="0.5122" stop-color="#00D2FF"/>
<stop offset="0.7604" stop-color="#00DFFF"/>
<stop offset="1" stop-color="#00E3FF"/>
</linearGradient>
<linearGradient id="paint1_linear_1408_697" x1="39.1336" y1="23.0646" x2="11.1814" y2="23.0646" gradientUnits="userSpaceOnUse">
<stop stop-color="#FFE000"/>
<stop offset="0.4087" stop-color="#FFBD00"/>
<stop offset="0.7754" stop-color="#FFA500"/>
<stop offset="1" stop-color="#FF9C00"/>
</linearGradient>
<linearGradient id="paint2_linear_1408_697" x1="28.7284" y1="20.4765" x2="3.06737" y2="-5.80638" gradientUnits="userSpaceOnUse">
<stop stop-color="#FF3A44"/>
<stop offset="1" stop-color="#C31162"/>
</linearGradient>
<linearGradient id="paint3_linear_1408_697" x1="8.47811" y1="45.4248" x2="19.9369" y2="33.6885" gradientUnits="userSpaceOnUse">
<stop stop-color="#32A071"/>
<stop offset="0.0685" stop-color="#2DA771"/>
<stop offset="0.4762" stop-color="#15CF74"/>
<stop offset="0.8009" stop-color="#06E775"/>
<stop offset="1" stop-color="#00F076"/>
</linearGradient>
</defs>
</svg>
