<svg width="25" height="24" viewBox="0 0 25 24" fill="none" xmlns="http://www.w3.org/2000/svg">
<g clip-path="url(#clip0_2713_25709)">
<path d="M24.2493 12.2764C24.2493 11.4607 24.1818 10.6406 24.0378 9.83807H12.4889V14.4591H19.1024C18.828 15.9494 17.9462 17.2678 16.655 18.1056V21.1039H20.6006C22.9176 19.0139 24.2493 15.9274 24.2493 12.2764Z" fill="#4285F4"/>
<path d="M12.4889 24.0008C15.7912 24.0008 18.576 22.9382 20.6051 21.1039L16.6595 18.1055C15.5617 18.8375 14.1445 19.252 12.4934 19.252C9.29912 19.252 6.59073 17.1399 5.61895 14.3003H1.54736V17.3912C3.62589 21.4434 7.85944 24.0008 12.4889 24.0008Z" fill="#34A853"/>
<path d="M5.61441 14.3003C5.10153 12.8099 5.10153 11.1961 5.61441 9.70575V6.61481H1.54733C-0.189279 10.0056 -0.189279 14.0004 1.54733 17.3912L5.61441 14.3003Z" fill="#FBBC04"/>
<path d="M12.4889 4.74966C14.2345 4.7232 15.9216 5.36697 17.1858 6.54867L20.6815 3.12262C18.468 1.0855 15.5302 -0.034466 12.4889 0.000808666C7.85944 0.000808666 3.62589 2.55822 1.54736 6.61481L5.61445 9.70575C6.58173 6.86173 9.29462 4.74966 12.4889 4.74966Z" fill="#EA4335"/>
</g>
<defs>
<clipPath id="clip0_2713_25709">
<rect width="24.488" height="24" fill="white"/>
</clipPath>
</defs>
</svg>
