<svg width="236" height="24" viewBox="0 0 236 24" fill="none" xmlns="http://www.w3.org/2000/svg">
<rect width="18.4615" height="18.4615" transform="translate(58.1538 2.76953)" fill="#00C08D"/>
<path d="M67.3846 15.3934L70.1923 14.6416L71.3654 18.4617L67.3846 15.3934ZM73.8462 10.4558H68.9039L67.3846 5.53857L65.8654 10.4558H60.9231L64.9231 13.5037L63.4039 18.421L67.4039 15.3731L69.8654 13.5037L73.8462 10.4558Z" fill="white"/>
<rect width="18.4615" height="18.4615" transform="translate(78.4615 2.76953)" fill="#00C08D"/>
<path d="M87.6924 15.3934L90.5001 14.6416L91.6731 18.4617L87.6924 15.3934ZM94.1539 10.4558H89.2116L87.6924 5.53857L86.1731 10.4558H81.2308L85.2308 13.5037L83.7116 18.421L87.7116 15.3731L90.1731 13.5037L94.1539 10.4558Z" fill="white"/>
<rect width="18.4615" height="18.4615" transform="translate(98.7692 2.76953)" fill="#00C08D"/>
<path d="M108 15.3934L110.808 14.6416L111.981 18.4617L108 15.3934ZM114.462 10.4558H109.519L108 5.53857L106.481 10.4558H101.538L105.538 13.5037L104.019 18.421L108.019 15.3731L110.481 13.5037L114.462 10.4558Z" fill="white"/>
<rect width="18.4615" height="18.4615" transform="translate(119.077 2.76953)" fill="#00C08D"/>
<path d="M128.308 15.3934L131.115 14.6416L132.289 18.4617L128.308 15.3934ZM134.769 10.4558H129.827L128.308 5.53857L126.789 10.4558H121.846L125.846 13.5037L124.327 18.421L128.327 15.3731L130.788 13.5037L134.769 10.4558Z" fill="white"/>
<rect width="18.4615" height="18.4615" transform="translate(139.385 2.76953)" fill="url(#paint0_linear_593_4559)"/>
<path d="M148.615 15.3934L151.423 14.6416L152.596 18.4617L148.615 15.3934ZM155.077 10.4558H150.135L148.615 5.53857L147.096 10.4558H142.154L146.154 13.5037L144.635 18.421L148.635 15.3731L151.096 13.5037L155.077 10.4558Z" fill="white"/>
<path d="M5.98738 14.7344V16H1.79567V14.7344H5.98738ZM2.32572 8.125V16H0.703125V8.125H2.32572ZM5.44111 11.3323V12.5655H1.79567V11.3323H5.44111ZM5.98197 8.125V9.39603H1.79567V8.125H5.98197ZM8.09135 10.1478L9.0595 11.9273L10.0547 10.1478H11.7151L10.0601 13.009L11.7909 16H10.125L9.07031 14.1178L8.01562 16H6.34976L8.08053 13.009L6.42548 10.1478H8.09135ZM14.7819 14.8912C14.973 14.8912 15.1424 14.8552 15.2903 14.7831C15.4381 14.7073 15.5535 14.6028 15.6364 14.4694C15.723 14.3323 15.768 14.1719 15.7716 13.988H17.2374C17.2338 14.399 17.1238 14.765 16.9075 15.0859C16.6911 15.4032 16.4008 15.6538 16.0367 15.8377C15.6725 16.018 15.265 16.1082 14.8143 16.1082C14.36 16.1082 13.9633 16.0325 13.6244 15.881C13.2891 15.7296 13.0096 15.5204 12.7861 15.2536C12.5625 14.9832 12.3948 14.6695 12.2831 14.3125C12.1713 13.9519 12.1154 13.5661 12.1154 13.155V12.9982C12.1154 12.5835 12.1713 12.1977 12.2831 11.8407C12.3948 11.4802 12.5625 11.1665 12.7861 10.8996C13.0096 10.6292 13.2891 10.4183 13.6244 10.2668C13.9597 10.1154 14.3528 10.0397 14.8035 10.0397C15.2831 10.0397 15.7031 10.1316 16.0637 10.3155C16.4279 10.4994 16.7127 10.7626 16.9183 11.1052C17.1274 11.4441 17.2338 11.8462 17.2374 12.3113H15.7716C15.768 12.1166 15.7266 11.9399 15.6472 11.7812C15.5715 11.6226 15.4597 11.4964 15.3119 11.4026C15.1677 11.3053 14.9892 11.2566 14.7764 11.2566C14.5493 11.2566 14.3636 11.3053 14.2194 11.4026C14.0751 11.4964 13.9633 11.6262 13.884 11.7921C13.8047 11.9543 13.7488 12.14 13.7163 12.3492C13.6875 12.5547 13.6731 12.771 13.6731 12.9982V13.155C13.6731 13.3822 13.6875 13.6004 13.7163 13.8095C13.7452 14.0186 13.7993 14.2043 13.8786 14.3666C13.9615 14.5288 14.0751 14.6569 14.2194 14.7506C14.3636 14.8444 14.5511 14.8912 14.7819 14.8912ZM20.8341 16.1082C20.3798 16.1082 19.9724 16.0361 19.6118 15.8918C19.2512 15.744 18.9447 15.5403 18.6923 15.2806C18.4435 15.021 18.2524 14.72 18.119 14.3774C17.9856 14.0312 17.9189 13.6635 17.9189 13.274V13.0577C17.9189 12.6142 17.982 12.2085 18.1082 11.8407C18.2344 11.473 18.4147 11.1538 18.649 10.8834C18.887 10.613 19.1755 10.4056 19.5144 10.2614C19.8534 10.1136 20.2356 10.0397 20.6611 10.0397C21.0757 10.0397 21.4435 10.1082 21.7644 10.2452C22.0853 10.3822 22.354 10.5769 22.5703 10.8293C22.7903 11.0817 22.9561 11.3846 23.0679 11.738C23.1797 12.0877 23.2356 12.4772 23.2356 12.9062V13.5553H18.5841V12.5168H21.7049V12.3978C21.7049 12.1815 21.6653 11.9886 21.5859 11.8191C21.5102 11.646 21.3948 11.509 21.2398 11.4081C21.0847 11.3071 20.8864 11.2566 20.6448 11.2566C20.4393 11.2566 20.2626 11.3017 20.1148 11.3918C19.9669 11.482 19.8462 11.6082 19.7524 11.7704C19.6623 11.9327 19.5937 12.1238 19.5469 12.3437C19.5036 12.5601 19.482 12.7981 19.482 13.0577V13.274C19.482 13.5084 19.5144 13.7248 19.5793 13.9231C19.6478 14.1214 19.7434 14.2927 19.866 14.4369C19.9922 14.5811 20.1436 14.6929 20.3203 14.7722C20.5006 14.8516 20.7043 14.8912 20.9315 14.8912C21.2127 14.8912 21.4742 14.8371 21.7157 14.729C21.9609 14.6172 22.1719 14.4495 22.3486 14.226L23.1058 15.0481C22.9832 15.2248 22.8155 15.3942 22.6028 15.5565C22.3936 15.7187 22.1412 15.8522 21.8456 15.9567C21.5499 16.0577 21.2127 16.1082 20.8341 16.1082ZM25.7668 7.69231V16H24.2037V7.69231H25.7668ZM28.6983 7.69231V16H27.1352V7.69231H28.6983ZM32.6791 16.1082C32.2248 16.1082 31.8173 16.0361 31.4567 15.8918C31.0962 15.744 30.7897 15.5403 30.5373 15.2806C30.2885 15.021 30.0974 14.72 29.9639 14.3774C29.8305 14.0312 29.7638 13.6635 29.7638 13.274V13.0577C29.7638 12.6142 29.8269 12.2085 29.9531 11.8407C30.0793 11.473 30.2596 11.1538 30.494 10.8834C30.732 10.613 31.0204 10.4056 31.3594 10.2614C31.6983 10.1136 32.0805 10.0397 32.506 10.0397C32.9207 10.0397 33.2885 10.1082 33.6094 10.2452C33.9303 10.3822 34.1989 10.5769 34.4153 10.8293C34.6352 11.0817 34.8011 11.3846 34.9129 11.738C35.0246 12.0877 35.0805 12.4772 35.0805 12.9062V13.5553H30.4291V12.5168H33.5499V12.3978C33.5499 12.1815 33.5102 11.9886 33.4309 11.8191C33.3552 11.646 33.2398 11.509 33.0847 11.4081C32.9297 11.3071 32.7314 11.2566 32.4898 11.2566C32.2843 11.2566 32.1076 11.3017 31.9597 11.3918C31.8119 11.482 31.6911 11.6082 31.5974 11.7704C31.5072 11.9327 31.4387 12.1238 31.3918 12.3437C31.3486 12.5601 31.3269 12.7981 31.3269 13.0577V13.274C31.3269 13.5084 31.3594 13.7248 31.4243 13.9231C31.4928 14.1214 31.5883 14.2927 31.7109 14.4369C31.8371 14.5811 31.9886 14.6929 32.1653 14.7722C32.3456 14.8516 32.5493 14.8912 32.7764 14.8912C33.0577 14.8912 33.3191 14.8371 33.5607 14.729C33.8059 14.6172 34.0168 14.4495 34.1935 14.226L34.9507 15.0481C34.8281 15.2248 34.6605 15.3942 34.4477 15.5565C34.2386 15.7187 33.9862 15.8522 33.6905 15.9567C33.3948 16.0577 33.0577 16.1082 32.6791 16.1082ZM37.4928 11.3972V16H35.9351V10.1478H37.3954L37.4928 11.3972ZM37.2656 12.8684H36.8437C36.8437 12.4357 36.8996 12.0463 37.0114 11.7001C37.1232 11.3504 37.28 11.0529 37.482 10.8077C37.6839 10.5589 37.9237 10.3696 38.2013 10.2398C38.4826 10.1064 38.7963 10.0397 39.1424 10.0397C39.4165 10.0397 39.6671 10.0793 39.8942 10.1587C40.1214 10.238 40.3161 10.3642 40.4784 10.5373C40.6442 10.7103 40.7704 10.9393 40.857 11.2242C40.9471 11.509 40.9922 11.857 40.9922 12.268V16H39.4237V12.2626C39.4237 12.003 39.3876 11.8011 39.3155 11.6569C39.2434 11.5126 39.137 11.4117 38.9964 11.354C38.8594 11.2927 38.6899 11.262 38.488 11.262C38.2788 11.262 38.0968 11.3035 37.9417 11.3864C37.7903 11.4694 37.6641 11.5847 37.5631 11.7326C37.4657 11.8768 37.3918 12.0463 37.3413 12.241C37.2909 12.4357 37.2656 12.6448 37.2656 12.8684ZM45.0433 10.1478V11.2512H41.6358V10.1478H45.0433ZM42.4796 8.70373H44.0373V14.2368C44.0373 14.4062 44.0589 14.5361 44.1022 14.6262C44.149 14.7163 44.2175 14.7794 44.3077 14.8155C44.3978 14.848 44.5114 14.8642 44.6484 14.8642C44.7458 14.8642 44.8323 14.8606 44.9081 14.8534C44.9874 14.8425 45.0541 14.8317 45.1082 14.8209L45.1136 15.9675C44.9802 16.0108 44.8359 16.0451 44.6809 16.0703C44.5258 16.0956 44.3546 16.1082 44.1671 16.1082C43.8245 16.1082 43.5252 16.0523 43.2692 15.9405C43.0168 15.8251 42.8221 15.6412 42.6851 15.3888C42.5481 15.1364 42.4796 14.8047 42.4796 14.3936V8.70373Z" fill="white"/>
<path d="M176.423 15.2117L179.231 14.5002L180.404 18.1155L176.423 15.2117ZM182.885 10.5386H177.942L176.423 5.88477L174.904 10.5386H169.962L173.962 13.4232L172.442 18.0771L176.442 15.1925L178.904 13.4232L182.885 10.5386Z" fill="#00C08D"/>
<path d="M190.801 8.125V16H189.184V8.125H190.801ZM193.224 8.125V9.39603H186.799V8.125H193.224ZM195.231 11.4243V16H193.673V10.1478H195.139L195.231 11.4243ZM196.994 10.11L196.967 11.5541C196.891 11.5433 196.799 11.5343 196.691 11.527C196.587 11.5162 196.491 11.5108 196.404 11.5108C196.184 11.5108 195.993 11.5397 195.831 11.5974C195.672 11.6514 195.539 11.7326 195.431 11.8407C195.326 11.9489 195.247 12.0805 195.193 12.2356C195.142 12.3906 195.114 12.5673 195.106 12.7656L194.793 12.6683C194.793 12.2897 194.831 11.9417 194.906 11.6244C194.982 11.3035 195.092 11.024 195.236 10.7861C195.384 10.5481 195.564 10.3642 195.777 10.2344C195.99 10.1046 196.233 10.0397 196.507 10.0397C196.594 10.0397 196.682 10.0469 196.772 10.0613C196.862 10.0721 196.936 10.0883 196.994 10.11ZM201.191 14.5992V10.1478H202.749V16H201.283L201.191 14.5992ZM201.364 13.3984L201.824 13.3876C201.824 13.777 201.779 14.1394 201.689 14.4748C201.599 14.8065 201.463 15.095 201.283 15.3401C201.103 15.5817 200.876 15.771 200.602 15.9081C200.328 16.0415 200.005 16.1082 199.633 16.1082C199.349 16.1082 199.085 16.0685 198.844 15.9892C198.606 15.9062 198.4 15.7782 198.227 15.6052C198.058 15.4285 197.924 15.2031 197.827 14.9291C197.733 14.6514 197.686 14.3179 197.686 13.9285V10.1478H199.244V13.9393C199.244 14.1124 199.264 14.2584 199.303 14.3774C199.347 14.4964 199.406 14.5937 199.482 14.6695C199.558 14.7452 199.646 14.7993 199.747 14.8317C199.852 14.8642 199.967 14.8804 200.093 14.8804C200.414 14.8804 200.666 14.8155 200.85 14.6857C201.038 14.5559 201.169 14.3792 201.245 14.1556C201.325 13.9285 201.364 13.6761 201.364 13.3984ZM207.103 14.3828C207.103 14.271 207.07 14.1701 207.005 14.0799C206.94 13.9898 206.82 13.9069 206.643 13.8311C206.47 13.7518 206.219 13.6797 205.891 13.6148C205.596 13.5499 205.32 13.4687 205.064 13.3714C204.811 13.2704 204.591 13.1496 204.404 13.009C204.22 12.8684 204.076 12.7025 203.971 12.5114C203.867 12.3167 203.814 12.095 203.814 11.8462C203.814 11.601 203.867 11.3702 203.971 11.1538C204.079 10.9375 204.233 10.7464 204.431 10.5805C204.633 10.4111 204.878 10.2794 205.166 10.1857C205.459 10.0883 205.787 10.0397 206.151 10.0397C206.659 10.0397 207.096 10.1208 207.46 10.2831C207.828 10.4453 208.109 10.6689 208.303 10.9537C208.502 11.235 208.601 11.5559 208.601 11.9165H207.043C207.043 11.765 207.011 11.6298 206.946 11.5108C206.885 11.3882 206.787 11.2927 206.654 11.2242C206.524 11.152 206.355 11.116 206.145 11.116C205.972 11.116 205.823 11.1466 205.696 11.2079C205.57 11.2656 205.473 11.345 205.404 11.4459C205.34 11.5433 205.307 11.6514 205.307 11.7704C205.307 11.8606 205.325 11.9417 205.361 12.0138C205.401 12.0823 205.464 12.1454 205.55 12.2031C205.637 12.2608 205.749 12.3149 205.886 12.3654C206.026 12.4123 206.2 12.4555 206.405 12.4952C206.827 12.5817 207.204 12.6953 207.535 12.8359C207.867 12.973 208.13 13.1605 208.325 13.3984C208.52 13.6328 208.617 13.9411 208.617 14.3233C208.617 14.5829 208.559 14.8209 208.444 15.0373C208.329 15.2536 208.163 15.4429 207.946 15.6052C207.73 15.7638 207.471 15.8882 207.168 15.9784C206.868 16.0649 206.531 16.1082 206.156 16.1082C205.612 16.1082 205.15 16.0108 204.772 15.8161C204.397 15.6214 204.112 15.3744 203.917 15.0751C203.726 14.7722 203.63 14.4621 203.63 14.1448H205.107C205.114 14.3576 205.168 14.5288 205.269 14.6587C205.374 14.7885 205.505 14.8822 205.664 14.9399C205.826 14.9976 206.001 15.0264 206.189 15.0264C206.391 15.0264 206.558 14.9994 206.692 14.9453C206.825 14.8876 206.926 14.8119 206.995 14.7181C207.067 14.6208 207.103 14.509 207.103 14.3828ZM212.495 10.1478V11.2512H209.088V10.1478H212.495ZM209.931 8.70373H211.489V14.2368C211.489 14.4062 211.511 14.5361 211.554 14.6262C211.601 14.7163 211.669 14.7794 211.76 14.8155C211.85 14.848 211.963 14.8642 212.1 14.8642C212.198 14.8642 212.284 14.8606 212.36 14.8534C212.439 14.8425 212.506 14.8317 212.56 14.8209L212.565 15.9675C212.432 16.0108 212.288 16.0451 212.133 16.0703C211.978 16.0956 211.806 16.1082 211.619 16.1082C211.276 16.1082 210.977 16.0523 210.721 15.9405C210.469 15.8251 210.274 15.6412 210.137 15.3888C210 15.1364 209.931 14.8047 209.931 14.3936V8.70373ZM214.94 11.2728V18.25H213.382V10.1478H214.826L214.94 11.2728ZM218.645 13.009V13.1226C218.645 13.5481 218.594 13.9429 218.493 14.3071C218.396 14.6713 218.252 14.9886 218.061 15.259C217.87 15.5258 217.632 15.735 217.347 15.8864C217.065 16.0343 216.741 16.1082 216.373 16.1082C216.016 16.1082 215.706 16.0361 215.443 15.8918C215.18 15.7476 214.958 15.5457 214.778 15.2861C214.601 15.0228 214.459 14.7181 214.35 14.372C214.242 14.0258 214.159 13.6544 214.102 13.2578V12.9603C214.159 12.5349 214.242 12.1454 214.35 11.7921C214.459 11.4351 214.601 11.1268 214.778 10.8672C214.958 10.604 215.178 10.4002 215.437 10.256C215.701 10.1118 216.009 10.0397 216.362 10.0397C216.734 10.0397 217.06 10.11 217.341 10.2506C217.626 10.3912 217.864 10.5931 218.055 10.8564C218.25 11.1196 218.396 11.4333 218.493 11.7975C218.594 12.1617 218.645 12.5655 218.645 13.009ZM217.082 13.1226V13.009C217.082 12.7602 217.06 12.5312 217.017 12.3221C216.977 12.1094 216.912 11.9237 216.822 11.765C216.736 11.6064 216.62 11.4838 216.476 11.3972C216.335 11.3071 216.164 11.262 215.962 11.262C215.749 11.262 215.567 11.2963 215.416 11.3648C215.268 11.4333 215.147 11.5325 215.053 11.6623C214.96 11.7921 214.889 11.9471 214.843 12.1274C214.796 12.3077 214.767 12.5114 214.756 12.7386V13.4904C214.774 13.7572 214.825 13.997 214.907 14.2097C214.99 14.4189 215.118 14.5847 215.291 14.7073C215.465 14.8299 215.692 14.8912 215.973 14.8912C216.178 14.8912 216.352 14.8462 216.492 14.756C216.633 14.6623 216.746 14.5343 216.833 14.372C216.923 14.2097 216.986 14.0222 217.022 13.8095C217.062 13.5968 217.082 13.3678 217.082 13.1226ZM221.257 10.1478V16H219.694V10.1478H221.257ZM219.597 8.6226C219.597 8.39543 219.676 8.20793 219.835 8.0601C219.993 7.91226 220.206 7.83834 220.473 7.83834C220.736 7.83834 220.947 7.91226 221.106 8.0601C221.268 8.20793 221.349 8.39543 221.349 8.6226C221.349 8.84976 221.268 9.03726 221.106 9.1851C220.947 9.33293 220.736 9.40685 220.473 9.40685C220.206 9.40685 219.993 9.33293 219.835 9.1851C219.676 9.03726 219.597 8.84976 219.597 8.6226ZM224.189 7.69231V16H222.626V7.69231H224.189ZM225.227 13.1334V13.0198C225.227 12.5907 225.288 12.1959 225.411 11.8353C225.534 11.4712 225.712 11.1556 225.946 10.8888C226.181 10.622 226.469 10.4147 226.812 10.2668C227.154 10.1154 227.547 10.0397 227.991 10.0397C228.434 10.0397 228.829 10.1154 229.175 10.2668C229.522 10.4147 229.812 10.622 230.046 10.8888C230.284 11.1556 230.465 11.4712 230.587 11.8353C230.71 12.1959 230.771 12.5907 230.771 13.0198V13.1334C230.771 13.5589 230.71 13.9537 230.587 14.3179C230.465 14.6785 230.284 14.994 230.046 15.2644C229.812 15.5312 229.523 15.7386 229.181 15.8864C228.838 16.0343 228.445 16.1082 228.002 16.1082C227.558 16.1082 227.163 16.0343 226.817 15.8864C226.475 15.7386 226.184 15.5312 225.946 15.2644C225.712 14.994 225.534 14.6785 225.411 14.3179C225.288 13.9537 225.227 13.5589 225.227 13.1334ZM226.785 13.0198V13.1334C226.785 13.3786 226.806 13.6076 226.85 13.8203C226.893 14.0331 226.962 14.2206 227.055 14.3828C227.153 14.5415 227.279 14.6659 227.434 14.756C227.589 14.8462 227.778 14.8912 228.002 14.8912C228.218 14.8912 228.404 14.8462 228.559 14.756C228.714 14.6659 228.838 14.5415 228.932 14.3828C229.026 14.2206 229.094 14.0331 229.138 13.8203C229.184 13.6076 229.208 13.3786 229.208 13.1334V13.0198C229.208 12.7819 229.184 12.5583 229.138 12.3492C229.094 12.1364 229.024 11.9489 228.927 11.7867C228.833 11.6208 228.709 11.491 228.553 11.3972C228.398 11.3035 228.211 11.2566 227.991 11.2566C227.771 11.2566 227.584 11.3035 227.428 11.3972C227.277 11.491 227.153 11.6208 227.055 11.7867C226.962 11.9489 226.893 12.1364 226.85 12.3492C226.806 12.5583 226.785 12.7819 226.785 13.0198ZM234.595 10.1478V11.2512H231.187V10.1478H234.595ZM232.031 8.70373H233.589V14.2368C233.589 14.4062 233.611 14.5361 233.654 14.6262C233.701 14.7163 233.769 14.7794 233.859 14.8155C233.95 14.848 234.063 14.8642 234.2 14.8642C234.297 14.8642 234.384 14.8606 234.46 14.8534C234.539 14.8425 234.606 14.8317 234.66 14.8209L234.665 15.9675C234.532 16.0108 234.388 16.0451 234.233 16.0703C234.078 16.0956 233.906 16.1082 233.719 16.1082C233.376 16.1082 233.077 16.0523 232.821 15.9405C232.568 15.8251 232.374 15.6412 232.237 15.3888C232.1 15.1364 232.031 14.8047 232.031 14.3936V8.70373Z" fill="white"/>
<defs>
<linearGradient id="paint0_linear_593_4559" x1="0" y1="9.23077" x2="18.4615" y2="9.23077" gradientUnits="userSpaceOnUse">
<stop stop-color="#00C08D"/>
<stop offset="0.5" stop-color="#00C08D"/>
<stop offset="0.5001" stop-color="#00C08D" stop-opacity="0"/>
<stop offset="0.5002" stop-color="#D9D9D9"/>
<stop offset="0.9998" stop-color="#D9D9D9"/>
<stop offset="0.9999" stop-color="#219653" stop-opacity="0"/>
<stop offset="1" stop-color="#D9D9D9"/>
</linearGradient>
</defs>
</svg>
