<?xml version="1.0" encoding="UTF-8"?>
<!DOCTYPE svg PUBLIC "-//W3C//DTD SVG 1.1//EN" "http://www.w3.org/Graphics/SVG/1.1/DTD/svg11.dtd">
<!-- Creator: CorelDRAW -->
<svg xmlns="http://www.w3.org/2000/svg" xml:space="preserve" width="55.88mm" height="8.8929mm" version="1.1" style="shape-rendering:geometricPrecision; text-rendering:geometricPrecision; image-rendering:optimizeQuality; fill-rule:evenodd; clip-rule:evenodd"
viewBox="0 0 6475.36 1030.51"
 xmlns:xlink="http://www.w3.org/1999/xlink"
 xmlns:xodm="http://www.corel.com/coreldraw/odm/2003">
 <defs>
  <style type="text/css">
   <![CDATA[
    .fil0 {fill:#FEFEFE}
   ]]>
  </style>
 </defs>
 <g id="Layer_x0020_1">
  <metadata id="CorelCorpID_0Corel-Layer"/>
  <path class="fil0" d="M261.22 773.14c-2.69,59.6 -2.07,132.4 -0.61,192.44 1.82,74.67 61.32,64.45 129,64.45 138.63,-0.01 221.41,7 339.9,-45.96 402.86,-180.03 402.71,-755.86 0.32,-936.95 -117.24,-52.77 -202.41,-45.73 -340.22,-45.73 -127.18,0 -259.23,-3.44 -385.79,0.46 -3.35,332.67 -69.12,247.92 514.39,256.84 232.11,3.55 341.31,279.76 180.99,438.29 -110.77,109.56 -257.81,70.69 -437.98,76.14 -8.22,-286.62 52.26,-262.29 -256.92,-257.17 -2.73,54.85 -13.41,210.96 16.22,240.44 30.97,30.87 183.45,16.26 240.69,16.73zm1092.44 242.99l-151.48 0 0 -573.84 140.41 0 0 81.44c24.15,-38.52 45.9,-63.76 65.24,-75.74 19.35,-11.97 41.28,-17.87 65.78,-17.87 34.66,0 68.01,9.58 100.06,28.55l-46.98 132.32c-25.62,-16.59 -49.39,-24.88 -71.31,-24.88 -21.39,0 -39.45,5.9 -54.19,17.51 -14.74,11.8 -26.35,32.79 -34.82,63.39 -8.48,30.59 -12.72,94.72 -12.72,192.21l0 176.9zm617.15 -181.33l151.48 25.44c-19.34,55.46 -50.12,97.66 -91.95,126.77 -42.01,28.94 -94.53,43.5 -157.38,43.5 -99.7,0 -173.59,-32.62 -221.32,-97.86 -37.78,-52.33 -56.76,-118.3 -56.76,-198.1 0,-95.09 24.88,-169.72 74.44,-223.53 49.58,-54 112.43,-80.9 188.34,-80.9 85.14,0 152.41,28.19 201.79,84.58 49.19,56.4 72.78,142.82 70.58,259.28l-379.25 0c1.1,44.96 13.27,79.98 36.66,105.04 23.22,25.06 52.33,37.59 86.99,37.59 23.77,0 43.66,-6.45 59.7,-19.35 16.22,-12.9 28.38,-33.72 36.66,-62.47zm8.85 -153.69c-1.11,-44.05 -12.35,-77.58 -33.91,-100.43 -21.57,-23.03 -47.73,-34.45 -78.69,-34.45 -32.98,0 -60.26,12.16 -81.82,36.31 -21.55,24.14 -32.06,57.12 -31.69,98.58l226.12 0zm387.17 -61.91l-137.1 -24.32c15.47,-56.03 42.19,-97.49 79.97,-124.4 37.79,-26.9 93.99,-40.35 168.43,-40.35 67.64,0 118.13,7.93 151.3,23.95 32.98,16.03 56.39,36.31 69.83,61 13.45,24.69 20.28,69.84 20.28,135.81l-2.21 176.91c0,50.3 2.4,87.54 7.18,111.49 4.8,23.95 13.82,49.57 27.09,76.84l-150.37 0c-3.88,-9.94 -8.85,-24.69 -14.57,-44.23 -2.4,-9.03 -4.24,-14.91 -5.34,-17.68 -25.81,25.44 -53.43,44.41 -82.92,57.13 -29.49,12.71 -60.81,19.17 -94.18,19.17 -58.77,0 -105.22,-16.04 -139.13,-48.1 -33.91,-31.88 -50.86,-72.42 -50.86,-121.44 0,-32.24 7.73,-61.17 23.21,-86.61 15.48,-25.24 37.05,-44.79 65.05,-58.24 27.83,-13.44 68,-25.24 120.53,-35.38 70.76,-13.27 119.96,-25.79 147.24,-37.22l0 -15.3c0,-29.49 -7.18,-50.49 -21.57,-63.21 -14.55,-12.53 -41.83,-18.78 -81.82,-18.78 -27.09,0 -48.09,5.34 -63.2,16.21 -15.31,10.68 -27.46,29.67 -36.86,56.76zm203.45 122.73c-19.35,6.45 -50.13,14.18 -92.33,23.22 -42.01,9.03 -69.66,17.87 -82.55,26.35 -19.72,14.18 -29.67,31.88 -29.67,53.43 0,21.39 7.93,39.63 23.77,55.11 15.85,15.48 35.93,23.21 60.45,23.21 27.27,0 53.43,-9.03 78.31,-26.91 18.24,-13.81 30.41,-30.4 36.12,-50.3 3.87,-12.9 5.9,-37.59 5.9,-73.9l0 -30.22zm287.66 -299.63l139.31 0 0 78.31c49.94,-60.26 109.46,-90.48 178.57,-90.48 36.66,0 68.55,7.56 95.46,22.67 27.08,15.11 49.2,37.96 66.33,68.54 25.25,-30.58 52.52,-53.43 81.64,-68.54 29.12,-15.11 60.26,-22.67 93.43,-22.67 42.01,0 77.58,8.47 106.88,25.62 29.12,17.13 50.86,42.19 65.24,75.37 10.51,24.32 15.67,63.94 15.67,118.66l0 366.35 -151.48 0 0 -327.46c0,-56.94 -5.17,-93.61 -15.67,-110.02 -14.01,-21.55 -35.75,-32.42 -64.87,-32.42 -21.18,0 -41.28,6.44 -60.07,19.34 -18.61,13.08 -32.25,32.08 -40.55,56.94 -8.29,25.06 -12.34,64.5 -12.34,118.49l0 275.13 -151.48 0 0 -314.01c0,-55.65 -2.77,-91.77 -8.11,-107.8 -5.34,-16.21 -13.64,-28.38 -25.06,-36.29 -11.24,-7.94 -26.72,-11.8 -46.06,-11.8 -23.41,0 -44.42,6.26 -63.03,18.78 -18.8,12.72 -32.06,30.79 -40.18,54.56 -8.1,23.77 -12.16,63.2 -12.16,118.13l0 278.44 -151.48 0 0 -573.84zm995.3 -217.82l291.53 0c65.78,0 115.9,4.97 150.37,15.1 46.26,13.64 86.06,37.96 119.04,72.98 33.18,34.82 58.24,77.58 75.55,128.26 17.14,50.5 25.81,112.96 25.81,187.04 0,65.24 -8.11,121.27 -24.32,168.43 -19.72,57.68 -47.92,104.3 -84.58,139.87 -27.65,27.09 -65.05,48.1 -112.06,63.21 -35.19,11.24 -82.18,16.77 -141.15,16.77l-300.19 0 0 -791.66zm160.32 133.78l0 524.09 118.86 0c44.42,0 76.48,-2.57 96.2,-7.56 25.98,-6.45 47.35,-17.51 64.31,-32.98 17.13,-15.48 30.95,-40.92 41.64,-76.31 10.87,-35.38 16.22,-83.84 16.22,-145.02 0,-61.17 -5.35,-107.99 -16.22,-140.78 -10.68,-32.81 -25.79,-58.24 -45.15,-76.67 -19.35,-18.24 -43.86,-30.78 -73.71,-37.22 -22.11,-4.98 -65.78,-7.56 -130.65,-7.56l-71.5 0zm781.9 657.87l-151.48 0 0 -573.84 140.42 0 0 81.44c24.15,-38.52 45.89,-63.76 65.23,-75.74 19.35,-11.97 41.29,-17.87 65.78,-17.87 34.66,0 68.01,9.58 100.06,28.55l-46.98 132.32c-25.62,-16.59 -49.39,-24.88 -71.31,-24.88 -21.39,0 -39.45,5.9 -54.19,17.51 -14.74,11.8 -26.35,32.79 -34.82,63.39 -8.48,30.59 -12.72,94.72 -12.72,192.21l0 176.9zm398.23 -396.93l-137.1 -24.32c15.47,-56.03 42.19,-97.49 79.97,-124.4 37.79,-26.9 93.99,-40.35 168.43,-40.35 67.64,0 118.13,7.93 151.3,23.95 32.98,16.03 56.38,36.31 69.83,61 13.45,24.69 20.28,69.84 20.28,135.81l-2.21 176.91c0,50.3 2.4,87.54 7.18,111.49 4.8,23.95 13.82,49.57 27.09,76.84l-150.38 0c-3.87,-9.94 -8.84,-24.69 -14.55,-44.23 -2.4,-9.03 -4.24,-14.91 -5.34,-17.68 -25.81,25.44 -53.44,44.41 -82.92,57.13 -29.49,12.71 -60.81,19.17 -94.18,19.17 -58.77,0 -105.22,-16.04 -139.13,-48.1 -33.91,-31.88 -50.86,-72.42 -50.86,-121.44 0,-32.24 7.73,-61.17 23.21,-86.61 15.48,-25.24 37.05,-44.79 65.05,-58.24 27.82,-13.44 68,-25.24 120.53,-35.38 70.76,-13.27 119.96,-25.79 147.23,-37.22l0 -15.3c0,-29.49 -7.17,-50.49 -21.55,-63.21 -14.55,-12.53 -41.83,-18.78 -81.82,-18.78 -27.09,0 -48.09,5.34 -63.2,16.21 -15.31,10.68 -27.46,29.67 -36.86,56.76zm203.44 122.73c-19.34,6.45 -50.12,14.18 -92.32,23.22 -42.01,9.03 -69.66,17.87 -82.55,26.35 -19.72,14.18 -29.67,31.88 -29.67,53.43 0,21.39 7.93,39.63 23.77,55.11 15.85,15.48 35.93,23.21 60.45,23.21 27.25,0 53.43,-9.03 78.3,-26.91 18.25,-13.81 30.42,-30.4 36.13,-50.3 3.86,-12.9 5.89,-37.59 5.89,-73.9l0 -30.22zm404.87 274.21l-181.33 -573.84 147.41 0 107.44 376.1 98.96 -376.1 146.32 0 95.26 376.1 109.65 -376.1 149.64 0 -184.27 573.84 -145.59 0 -98.58 -369.11 -97.3 369.11 -147.61 0z"/>
 </g>
</svg>
