<svg width="293" height="51" viewBox="0 0 293 51" fill="none" xmlns="http://www.w3.org/2000/svg">
<g clip-path="url(#clip0_2071_6600)">
<path d="M178.997 32.6525L186.383 30.7909L189.468 40.2499L178.997 32.6525ZM195.994 20.4261H182.993L178.997 8.24998L175.001 20.4261H162L172.522 27.9733L168.526 40.1493L179.048 32.6021L185.523 27.9733L195.994 20.4261Z" fill="#00C08D"/>
<path d="M209.142 15.6548V30.9553H206.537V15.6548H209.142ZM213.922 15.6548V17.7565H201.798V15.6548H213.922ZM217.458 21.7497V30.9553H214.937V19.585H217.343L217.458 21.7497ZM220.921 19.5114L220.9 21.8654C220.747 21.8374 220.579 21.8163 220.398 21.8023C220.224 21.7883 220.049 21.7813 219.875 21.7813C219.443 21.7813 219.062 21.8444 218.735 21.9704C218.407 22.0896 218.131 22.2647 217.908 22.4958C217.692 22.72 217.525 22.9932 217.406 23.3155C217.287 23.6378 217.218 23.9986 217.197 24.3979L216.621 24.4399C216.621 23.7254 216.691 23.0633 216.831 22.4538C216.97 21.8444 217.179 21.3084 217.458 20.846C217.744 20.3836 218.1 20.0228 218.525 19.7636C218.958 19.5044 219.456 19.3748 220.021 19.3748C220.175 19.3748 220.339 19.3888 220.513 19.4168C220.694 19.4449 220.83 19.4764 220.921 19.5114ZM229.311 28.2756V19.585H231.843V30.9553H229.457L229.311 28.2756ZM229.667 25.9112L230.514 25.8902C230.514 26.6538 230.43 27.3578 230.263 28.0024C230.096 28.6398 229.838 29.1968 229.489 29.6733C229.14 30.1426 228.694 30.5105 228.15 30.7767C227.606 31.0359 226.954 31.1654 226.194 31.1654C225.643 31.1654 225.137 31.0849 224.677 30.9238C224.216 30.7627 223.819 30.514 223.484 30.1777C223.156 29.8414 222.902 29.4036 222.72 28.8641C222.539 28.3247 222.448 27.6801 222.448 26.9305V19.585H224.97V26.9515C224.97 27.3648 225.018 27.7116 225.116 27.9919C225.214 28.2651 225.346 28.4858 225.514 28.6539C225.681 28.8221 225.876 28.9411 226.099 29.0112C226.323 29.0813 226.56 29.1163 226.811 29.1163C227.529 29.1163 228.094 28.9761 228.506 28.6959C228.924 28.4087 229.22 28.0234 229.395 27.5399C229.576 27.0566 229.667 26.5136 229.667 25.9112ZM240.777 27.8762C240.777 27.624 240.714 27.3964 240.588 27.1932C240.463 26.9831 240.222 26.7938 239.867 26.6257C239.518 26.4575 239.002 26.3035 238.318 26.1634C237.719 26.0302 237.168 25.8727 236.665 25.6904C236.17 25.5013 235.745 25.2736 235.389 25.0074C235.033 24.7412 234.758 24.4259 234.563 24.0616C234.367 23.6974 234.27 23.277 234.27 22.8006C234.27 22.3383 234.371 21.9003 234.573 21.487C234.775 21.0736 235.065 20.7094 235.441 20.3941C235.818 20.0789 236.275 19.8302 236.812 19.648C237.356 19.4659 237.963 19.3748 238.632 19.3748C239.581 19.3748 240.393 19.5359 241.07 19.8582C241.753 20.1735 242.276 20.6043 242.639 21.1507C243.002 21.6902 243.183 22.2997 243.183 22.9792H240.662C240.662 22.6781 240.585 22.3977 240.431 22.1385C240.285 21.8724 240.062 21.6586 239.762 21.4976C239.462 21.3295 239.085 21.2453 238.632 21.2453C238.2 21.2453 237.841 21.3153 237.555 21.4555C237.276 21.5887 237.066 21.7638 236.927 21.9809C236.794 22.1981 236.728 22.4364 236.728 22.6956C236.728 22.8847 236.763 23.0563 236.833 23.2105C236.909 23.3576 237.035 23.4941 237.209 23.6203C237.384 23.7394 237.621 23.8515 237.921 23.9566C238.228 24.0616 238.611 24.1632 239.072 24.2613C239.936 24.4435 240.679 24.6781 241.3 24.9654C241.927 25.2456 242.409 25.6099 242.743 26.0583C243.078 26.4996 243.246 27.0601 243.246 27.7397C243.246 28.2441 243.138 28.7064 242.921 29.1268C242.712 29.5401 242.405 29.9009 242.001 30.2092C241.596 30.5105 241.112 30.7452 240.547 30.9133C239.989 31.0815 239.361 31.1654 238.664 31.1654C237.638 31.1654 236.77 30.9833 236.059 30.619C235.347 30.2478 234.807 29.7748 234.437 29.2003C234.075 28.6188 233.893 28.0164 233.893 27.3929H236.331C236.359 27.8622 236.488 28.2371 236.718 28.5173C236.955 28.7905 237.248 28.9902 237.597 29.1163C237.952 29.2354 238.318 29.2949 238.695 29.2949C239.148 29.2949 239.528 29.2354 239.835 29.1163C240.142 28.9902 240.376 28.8221 240.536 28.6118C240.697 28.3947 240.777 28.1495 240.777 27.8762ZM250.642 19.585V21.4345H244.26V19.585H250.642ZM246.102 16.8002H248.623V27.8133C248.623 28.1635 248.672 28.4332 248.769 28.6223C248.874 28.8045 249.017 28.9271 249.198 28.9902C249.379 29.0532 249.592 29.0848 249.836 29.0848C250.011 29.0848 250.178 29.0743 250.338 29.0532C250.499 29.0322 250.628 29.0112 250.725 28.9902L250.736 30.9238C250.527 30.9868 250.283 31.0428 250.004 31.0919C249.732 31.1409 249.418 31.1654 249.062 31.1654C248.483 31.1654 247.971 31.0638 247.524 30.8607C247.078 30.6505 246.729 30.3107 246.478 29.8414C246.227 29.372 246.102 28.7485 246.102 27.9708V16.8002ZM255.119 21.7708V35.3269H252.598V19.585H254.921L255.119 21.7708ZM262.495 25.165V25.3858C262.495 26.2125 262.397 26.9796 262.202 27.6871C262.013 28.3876 261.731 29.0007 261.354 29.5261C260.985 30.0445 260.528 30.4474 259.984 30.7346C259.44 31.0219 258.812 31.1654 258.101 31.1654C257.396 31.1654 256.779 31.0359 256.249 30.7767C255.726 30.5105 255.283 30.1356 254.921 29.6521C254.558 29.1689 254.265 28.6014 254.042 27.9498C253.826 27.2912 253.672 26.5697 253.582 25.785V24.9338C253.672 24.1001 253.826 23.3435 254.042 22.6639C254.265 21.9844 254.558 21.3994 254.921 20.909C255.283 20.4187 255.726 20.0404 256.249 19.7741C256.772 19.5079 257.382 19.3748 258.08 19.3748C258.791 19.3748 259.422 19.5149 259.973 19.7951C260.524 20.0684 260.988 20.4607 261.365 20.9721C261.741 21.4765 262.024 22.086 262.212 22.8006C262.4 23.5081 262.495 24.2964 262.495 25.165ZM259.973 25.3858V25.165C259.973 24.6396 259.925 24.1527 259.827 23.7044C259.729 23.2489 259.576 22.8497 259.367 22.5064C259.157 22.163 258.889 21.8968 258.561 21.7077C258.24 21.5116 257.853 21.4134 257.4 21.4134C256.954 21.4134 256.57 21.4905 256.249 21.6446C255.928 21.7918 255.66 21.9984 255.444 22.2647C255.227 22.5309 255.06 22.8427 254.942 23.2C254.823 23.5502 254.739 23.932 254.69 24.3453V26.3841C254.774 26.8885 254.917 27.3508 255.119 27.7712C255.322 28.1915 255.608 28.5278 255.977 28.78C256.354 29.0252 256.835 29.1477 257.421 29.1477C257.874 29.1477 258.261 29.0497 258.582 28.8536C258.903 28.6574 259.164 28.3876 259.367 28.0443C259.576 27.6941 259.729 27.2912 259.827 26.8359C259.925 26.3806 259.973 25.8972 259.973 25.3858ZM267.338 19.585V30.9553H264.807V19.585H267.338ZM264.639 16.6005C264.639 16.2152 264.765 15.8965 265.016 15.6443C265.274 15.385 265.63 15.2554 266.083 15.2554C266.529 15.2554 266.881 15.385 267.14 15.6443C267.398 15.8965 267.527 16.2152 267.527 16.6005C267.527 16.9789 267.398 17.2941 267.14 17.5463C266.881 17.7985 266.529 17.9246 266.083 17.9246C265.63 17.9246 265.274 17.7985 265.016 17.5463C264.765 17.2941 264.639 16.9789 264.639 16.6005ZM272.799 14.8141V30.9553H270.267V14.8141H272.799ZM275.08 25.3962V25.1545C275.08 24.3348 275.198 23.5747 275.435 22.8742C275.673 22.1665 276.014 21.5536 276.461 21.0352C276.914 20.5098 277.465 20.1034 278.114 19.8162C278.769 19.5219 279.508 19.3748 280.331 19.3748C281.161 19.3748 281.9 19.5219 282.549 19.8162C283.205 20.1034 283.759 20.5098 284.213 21.0352C284.666 21.5536 285.011 22.1665 285.248 22.8742C285.485 23.5747 285.604 24.3348 285.604 25.1545V25.3962C285.604 26.216 285.485 26.9761 285.248 27.6766C285.011 28.3771 284.666 28.9902 284.213 29.5156C283.759 30.034 283.208 30.4404 282.56 30.7346C281.911 31.0219 281.175 31.1654 280.352 31.1654C279.522 31.1654 278.78 31.0219 278.124 30.7346C277.475 30.4404 276.924 30.034 276.471 29.5156C276.018 28.9902 275.673 28.3771 275.435 27.6766C275.198 26.9761 275.08 26.216 275.08 25.3962ZM277.601 25.1545V25.3962C277.601 25.9077 277.653 26.3911 277.758 26.8464C277.862 27.3019 278.026 27.7011 278.249 28.0443C278.473 28.3876 278.759 28.6574 279.107 28.8536C279.456 29.0497 279.871 29.1477 280.352 29.1477C280.819 29.1477 281.224 29.0497 281.566 28.8536C281.914 28.6574 282.2 28.3876 282.424 28.0443C282.647 27.7011 282.811 27.3019 282.915 26.8464C283.027 26.3911 283.083 25.9077 283.083 25.3962V25.1545C283.083 24.6501 283.027 24.1737 282.915 23.7254C282.811 23.27 282.643 22.8672 282.413 22.5169C282.19 22.1665 281.904 21.8933 281.555 21.6972C281.214 21.494 280.806 21.3924 280.331 21.3924C279.857 21.3924 279.446 21.494 279.097 21.6972C278.755 21.8933 278.473 22.1665 278.249 22.5169C278.026 22.8672 277.862 23.27 277.758 23.7254C277.653 24.1737 277.601 24.6501 277.601 25.1545ZM292.906 19.585V21.4345H286.524V19.585H292.906ZM288.366 16.8002H290.887V27.8133C290.887 28.1635 290.936 28.4332 291.033 28.6223C291.138 28.8045 291.281 28.9271 291.462 28.9902C291.644 29.0532 291.856 29.0848 292.1 29.0848C292.275 29.0848 292.442 29.0743 292.603 29.0532C292.763 29.0322 292.892 29.0112 292.99 28.9902L293 30.9238C292.791 30.9868 292.547 31.0428 292.268 31.0919C291.996 31.1409 291.682 31.1654 291.326 31.1654C290.747 31.1654 290.235 31.0638 289.788 30.8607C289.342 30.6505 288.993 30.3107 288.742 29.8414C288.491 29.372 288.366 28.7485 288.366 27.9708V16.8002Z" fill="white"/>
<path d="M33.0016 12.7481V14.7943H24.8889V12.7481H33.0016ZM25.634 -0.177356V14.7943H22.9998V-0.177356H25.634ZM31.9416 6.07456V8.08998H24.8889V6.07456H31.9416ZM32.9491 -0.177356V1.8792H24.8889V-0.177356H32.9491ZM36.8324 3.66839L38.9943 7.3599L41.1983 3.66839H43.9795L40.5371 9.12854L44.116 14.7943H41.3348L39.0258 10.9486L36.7169 14.7943H33.9252L37.4936 9.12854L34.0616 3.66839H36.8324ZM50.1401 13.0257C50.5529 13.0257 50.9237 12.9469 51.2526 12.7892C51.5885 12.6247 51.8579 12.3984 52.0607 12.1106C52.2707 11.8227 52.386 11.4902 52.407 11.1131H54.7894C54.7754 11.833 54.5586 12.4875 54.1387 13.0771C53.719 13.6666 53.1627 14.1362 52.4701 14.4858C51.7774 14.8286 51.0112 15 50.1717 15C49.304 15 48.5484 14.856 47.9046 14.5681C47.261 14.2733 46.7257 13.8689 46.2989 13.3547C45.8722 12.8406 45.5502 12.2476 45.3334 11.5758C45.1234 10.904 45.0185 10.1843 45.0185 9.41645V9.05655C45.0185 8.28877 45.1234 7.56899 45.3334 6.89718C45.5502 6.21852 45.8722 5.62212 46.2989 5.10798C46.7257 4.59384 47.261 4.19282 47.9046 3.9049C48.5484 3.61013 49.3006 3.46274 50.1612 3.46274C51.0707 3.46274 51.8684 3.64098 52.554 3.99744C53.2397 4.34705 53.7785 4.8372 54.1703 5.46788C54.5691 6.09169 54.7754 6.81835 54.7894 7.64782H52.407C52.386 7.23651 52.2812 6.86633 52.0923 6.53728C51.9103 6.20138 51.6514 5.93403 51.3156 5.73523C50.9868 5.53642 50.5914 5.43703 50.1296 5.43703C49.6189 5.43703 49.1956 5.53985 48.8597 5.74551C48.5239 5.94431 48.2614 6.21852 48.0725 6.56813C47.8836 6.91089 47.7473 7.2982 47.6633 7.73008C47.5863 8.15511 47.5478 8.59725 47.5478 9.05655V9.41645C47.5478 9.87575 47.5863 10.3214 47.6633 10.7532C47.7402 11.185 47.8731 11.5724 48.0621 11.9152C48.258 12.2511 48.5239 12.5218 48.8597 12.7275C49.1956 12.9263 49.6224 13.0257 50.1401 13.0257ZM61.7372 15C60.8976 15 60.1384 14.8663 59.4598 14.5989C58.7881 14.3247 58.2144 13.9442 57.7386 13.4575C57.2698 12.9708 56.9094 12.3984 56.6576 11.7403C56.4058 11.0822 56.2798 10.3727 56.2798 9.61182V9.20051C56.2798 8.32991 56.4092 7.54156 56.6681 6.83549C56.927 6.1294 57.2873 5.52614 57.7491 5.02572C58.2109 4.51844 58.7566 4.13112 59.3864 3.86377C60.016 3.59642 60.6982 3.46274 61.4328 3.46274C62.2445 3.46274 62.9546 3.59642 63.5634 3.86377C64.1721 4.13112 64.6758 4.50816 65.0746 4.99487C65.4805 5.47473 65.7813 6.04714 65.9773 6.71209C66.1802 7.37704 66.2817 8.11054 66.2817 8.9126V9.97172H57.5077V8.1928H63.7838V7.99743C63.7698 7.55185 63.6789 7.13368 63.511 6.74293C63.35 6.35219 63.1016 6.03686 62.7657 5.79692C62.4299 5.55699 61.9821 5.43703 61.4223 5.43703C61.0026 5.43703 60.6283 5.52614 60.2994 5.70438C59.9776 5.87576 59.7082 6.12597 59.4912 6.45502C59.2744 6.78407 59.1065 7.18166 58.9875 7.64782C58.8755 8.10712 58.8195 8.62468 58.8195 9.20051V9.61182C58.8195 10.0985 58.886 10.5509 59.019 10.9692C59.1589 11.3804 59.3618 11.7403 59.6277 12.0488C59.8936 12.3573 60.2155 12.6007 60.5933 12.7789C60.9711 12.9503 61.4014 13.036 61.8841 13.036C62.4929 13.036 63.0351 12.916 63.511 12.6761C63.9867 12.4362 64.3995 12.0968 64.7494 11.658L66.0822 12.9229C65.8373 13.2725 65.519 13.6084 65.1272 13.9306C64.7353 14.2459 64.2561 14.503 63.6894 14.7018C63.1296 14.9006 62.4789 15 61.7372 15ZM70.9625 -0.999969V14.7943H68.4226V-0.999969H70.9625ZM76.4409 -0.999969V14.7943H73.901V-0.999969H76.4409ZM84.2178 15C83.3781 15 82.619 14.8663 81.9403 14.5989C81.2686 14.3247 80.6949 13.9442 80.2191 13.4575C79.7504 12.9708 79.39 12.3984 79.1382 11.7403C78.8862 11.0822 78.7604 10.3727 78.7604 9.61182V9.20051C78.7604 8.32991 78.8898 7.54156 79.1487 6.83549C79.4076 6.1294 79.7678 5.52614 80.2296 5.02572C80.6914 4.51844 81.2372 4.13112 81.8668 3.86377C82.4966 3.59642 83.1788 3.46274 83.9134 3.46274C84.7251 3.46274 85.4352 3.59642 86.044 3.86377C86.6526 4.13112 87.1564 4.50816 87.5552 4.99487C87.961 5.47473 88.2619 6.04714 88.4578 6.71209C88.6607 7.37704 88.7621 8.11054 88.7621 8.9126V9.97172H79.9883V8.1928H86.2643V7.99743C86.2503 7.55185 86.1594 7.13368 85.9914 6.74293C85.8306 6.35219 85.5822 6.03686 85.2463 5.79692C84.9105 5.55699 84.4627 5.43703 83.9029 5.43703C83.4831 5.43703 83.1088 5.52614 82.78 5.70438C82.458 5.87576 82.1888 6.12597 81.9718 6.45502C81.7549 6.78407 81.5869 7.18166 81.468 7.64782C81.3561 8.10712 81.3001 8.62468 81.3001 9.20051V9.61182C81.3001 10.0985 81.3666 10.5509 81.4995 10.9692C81.6395 11.3804 81.8424 11.7403 82.1083 12.0488C82.3741 12.3573 82.696 12.6007 83.0738 12.7789C83.4517 12.9503 83.8819 13.036 84.3647 13.036C84.9734 13.036 85.5157 12.916 85.9914 12.6761C86.4673 12.4362 86.8801 12.0968 87.2298 11.658L88.5627 12.9229C88.3179 13.2725 87.9995 13.6084 87.6076 13.9306C87.2159 14.2459 86.7365 14.503 86.1698 14.7018C85.6101 14.9006 84.9595 15 84.2178 15ZM93.2436 6.04371V14.7943H90.7142V3.66839H93.0966L93.2436 6.04371ZM92.7922 8.82005L91.9737 8.80977C91.9807 8.02143 92.0926 7.2982 92.3095 6.64011C92.5333 5.98201 92.8413 5.41647 93.2331 4.94346C93.6319 4.47045 94.1077 4.10712 94.6604 3.85349C95.2132 3.59299 95.8289 3.46274 96.5076 3.46274C97.0533 3.46274 97.5466 3.53815 97.9873 3.68896C98.4351 3.83292 98.8165 4.06943 99.1313 4.39847C99.4532 4.72752 99.698 5.15597 99.866 5.68381C100.034 6.2048 100.118 6.84576 100.118 7.60669V14.7943H97.578V7.59641C97.578 7.0617 97.4976 6.64011 97.3367 6.33163C97.1827 6.01629 96.9554 5.7935 96.6545 5.66325C96.3606 5.52614 95.9933 5.45759 95.5525 5.45759C95.1187 5.45759 94.7304 5.54671 94.3876 5.72495C94.0447 5.90318 93.7543 6.14654 93.5165 6.45502C93.2855 6.7635 93.1071 7.11997 92.9811 7.52442C92.8553 7.92889 92.7922 8.36076 92.7922 8.82005ZM107.905 3.66839V5.47816H101.503V3.66839H107.905ZM103.35 0.943466H105.88V11.7198C105.88 12.0625 105.929 12.3264 106.027 12.5115C106.132 12.6898 106.275 12.8097 106.457 12.8714C106.639 12.9332 106.852 12.9639 107.097 12.9639C107.272 12.9639 107.44 12.9538 107.601 12.9332C107.762 12.9126 107.891 12.892 107.989 12.8714L108 14.7634C107.79 14.8252 107.545 14.88 107.265 14.9281C106.992 14.976 106.677 15 106.32 15C105.74 15 105.225 14.9006 104.778 14.7018C104.33 14.4961 103.98 14.1636 103.728 13.7044C103.476 13.2451 103.35 12.635 103.35 11.874V0.943466Z" fill="white"/>
<path d="M24.0741 27.0002H0V51.0002H24.0741V27.0002Z" fill="#00C08D"/>
<path d="M12.037 43.4115L15.6983 42.4341L17.228 47.4002L12.037 43.4115ZM20.4629 36.9926H14.0181L12.037 30.6002L10.0559 36.9926H3.61108L8.82714 40.9549L6.84604 47.3474L12.062 43.3851L15.272 40.9549L20.4629 36.9926Z" fill="white"/>
<path d="M50.5555 27.0002H26.4814V51.0002H50.5555V27.0002Z" fill="#00C08D"/>
<path d="M38.5189 43.4115L42.1802 42.4341L43.7099 47.4002L38.5189 43.4115ZM46.9449 36.9927H40.5L38.5189 30.6002L36.5379 36.9927H30.093L35.309 40.9549L33.328 47.3474L38.544 43.3851L41.7539 40.9549L46.9449 36.9927Z" fill="white"/>
<path d="M77.0374 27.0004H52.9634V51.0003H77.0374V27.0004Z" fill="#00C08D"/>
<path d="M64.9999 43.4115L68.6612 42.4341L70.1909 47.4002L64.9999 43.4115ZM73.4258 36.9926H66.981L64.9999 30.6002L63.0188 36.9926H56.574L61.79 40.9549L59.8089 47.3474L65.0249 43.3851L68.2348 40.9549L73.4258 36.9926Z" fill="white"/>
<path d="M103.519 27.0004H79.4448V51.0003H103.519V27.0004Z" fill="#00C08D"/>
<path d="M91.4813 43.4115L95.1426 42.4341L96.6723 47.4002L91.4813 43.4115ZM99.9073 36.9926H93.4624L91.4813 30.6002L89.5003 36.9926H83.0554L88.2714 40.9549L86.2904 47.3474L91.5064 43.3851L94.7163 40.9549L99.9073 36.9926Z" fill="white"/>
<path d="M130 27.0002H105.926V51.0002H130V27.0002Z" fill="url(#paint0_linear_2071_6600)"/>
<path d="M117.963 43.4115L121.625 42.4341L123.155 47.4002L117.963 43.4115ZM126.389 36.9926H119.944L117.963 30.6002L115.982 36.9926H109.537L114.753 40.9549L112.772 47.3474L117.988 43.3851L121.197 40.9549L126.389 36.9926Z" fill="white"/>
</g>
<defs>
<linearGradient id="paint0_linear_2071_6600" x1="105.714" y1="38.6433" x2="129.499" y2="38.6433" gradientUnits="userSpaceOnUse">
<stop stop-color="#00C08D"/>
<stop offset="0.515525" stop-color="#00C08D"/>
<stop offset="0.515625" stop-color="#D9D9D9"/>
<stop offset="1" stop-color="#D9D9D9"/>
</linearGradient>
<clipPath id="clip0_2071_6600">
<rect width="293" height="51" fill="white"/>
</clipPath>
</defs>
</svg>
